# Simplified NASA Orion crew module + European service module with four extended solar arrays
# Units: meters. Procedural approximation based on public NASA/ESA dimensions.
mtllib orion_crew_service_solar_arrays_simplified.mtl
v 2.55000 0.00000 -4.00000
v 2.20000 0.00000 -3.35000
v 2.53772 0.24994 -4.00000
v 2.18941 0.21564 -3.35000
v 2.50100 0.49748 -4.00000
v 2.15773 0.42920 -3.35000
v 2.44020 0.74023 -4.00000
v 2.10527 0.63863 -3.35000
v 2.35589 0.97584 -4.00000
v 2.03253 0.84190 -3.35000
v 2.24890 1.20206 -4.00000
v 1.94023 1.03707 -3.35000
v 2.12025 1.41670 -4.00000
v 1.82923 1.22225 -3.35000
v 1.97118 1.61770 -4.00000
v 1.70062 1.39567 -3.35000
v 1.80312 1.80312 -4.00000
v 1.55563 1.55563 -3.35000
v 1.61770 1.97118 -4.00000
v 1.39567 1.70062 -3.35000
v 1.41670 2.12025 -4.00000
v 1.22225 1.82923 -3.35000
v 1.20206 2.24890 -4.00000
v 1.03707 1.94023 -3.35000
v 0.97584 2.35589 -4.00000
v 0.84190 2.03253 -3.35000
v 0.74023 2.44020 -4.00000
v 0.63863 2.10527 -3.35000
v 0.49748 2.50100 -4.00000
v 0.42920 2.15773 -3.35000
v 0.24994 2.53772 -4.00000
v 0.21564 2.18941 -3.35000
v 0.00000 2.55000 -4.00000
v 0.00000 2.20000 -3.35000
v -0.24994 2.53772 -4.00000
v -0.21564 2.18941 -3.35000
v -0.49748 2.50100 -4.00000
v -0.42920 2.15773 -3.35000
v -0.74023 2.44020 -4.00000
v -0.63863 2.10527 -3.35000
v -0.97584 2.35589 -4.00000
v -0.84190 2.03253 -3.35000
v -1.20206 2.24890 -4.00000
v -1.03707 1.94023 -3.35000
v -1.41670 2.12025 -4.00000
v -1.22225 1.82923 -3.35000
v -1.61770 1.97118 -4.00000
v -1.39567 1.70062 -3.35000
v -1.80312 1.80312 -4.00000
v -1.55563 1.55563 -3.35000
v -1.97118 1.61770 -4.00000
v -1.70062 1.39567 -3.35000
v -2.12025 1.41670 -4.00000
v -1.82923 1.22225 -3.35000
v -2.24890 1.20206 -4.00000
v -1.94023 1.03707 -3.35000
v -2.35589 0.97584 -4.00000
v -2.03253 0.84190 -3.35000
v -2.44020 0.74023 -4.00000
v -2.10527 0.63863 -3.35000
v -2.50100 0.49748 -4.00000
v -2.15773 0.42920 -3.35000
v -2.53772 0.24994 -4.00000
v -2.18941 0.21564 -3.35000
v -2.55000 0.00000 -4.00000
v -2.20000 0.00000 -3.35000
v -2.53772 -0.24994 -4.00000
v -2.18941 -0.21564 -3.35000
v -2.50100 -0.49748 -4.00000
v -2.15773 -0.42920 -3.35000
v -2.44020 -0.74023 -4.00000
v -2.10527 -0.63863 -3.35000
v -2.35589 -0.97584 -4.00000
v -2.03253 -0.84190 -3.35000
v -2.24890 -1.20206 -4.00000
v -1.94023 -1.03707 -3.35000
v -2.12025 -1.41670 -4.00000
v -1.82923 -1.22225 -3.35000
v -1.97118 -1.61770 -4.00000
v -1.70062 -1.39567 -3.35000
v -1.80312 -1.80312 -4.00000
v -1.55563 -1.55563 -3.35000
v -1.61770 -1.97118 -4.00000
v -1.39567 -1.70062 -3.35000
v -1.41670 -2.12025 -4.00000
v -1.22225 -1.82923 -3.35000
v -1.20206 -2.24890 -4.00000
v -1.03707 -1.94023 -3.35000
v -0.97584 -2.35589 -4.00000
v -0.84190 -2.03253 -3.35000
v -0.74023 -2.44020 -4.00000
v -0.63863 -2.10527 -3.35000
v -0.49748 -2.50100 -4.00000
v -0.42920 -2.15773 -3.35000
v -0.24994 -2.53772 -4.00000
v -0.21564 -2.18941 -3.35000
v -0.00000 -2.55000 -4.00000
v -0.00000 -2.20000 -3.35000
v 0.24994 -2.53772 -4.00000
v 0.21564 -2.18941 -3.35000
v 0.49748 -2.50100 -4.00000
v 0.42920 -2.15773 -3.35000
v 0.74023 -2.44020 -4.00000
v 0.63863 -2.10527 -3.35000
v 0.97584 -2.35589 -4.00000
v 0.84190 -2.03253 -3.35000
v 1.20206 -2.24890 -4.00000
v 1.03707 -1.94023 -3.35000
v 1.41670 -2.12025 -4.00000
v 1.22225 -1.82923 -3.35000
v 1.61770 -1.97118 -4.00000
v 1.39567 -1.70062 -3.35000
v 1.80312 -1.80312 -4.00000
v 1.55563 -1.55563 -3.35000
v 1.97118 -1.61770 -4.00000
v 1.70062 -1.39567 -3.35000
v 2.12025 -1.41670 -4.00000
v 1.82923 -1.22225 -3.35000
v 2.24890 -1.20206 -4.00000
v 1.94023 -1.03707 -3.35000
v 2.35589 -0.97584 -4.00000
v 2.03253 -0.84190 -3.35000
v 2.44020 -0.74023 -4.00000
v 2.10527 -0.63863 -3.35000
v 2.50100 -0.49748 -4.00000
v 2.15773 -0.42920 -3.35000
v 2.53772 -0.24994 -4.00000
v 2.18941 -0.21564 -3.35000
v 0.00000 0.00000 -4.00000
v 0.00000 0.00000 -3.35000
v 2.25000 0.00000 -3.35000
v 2.25000 0.00000 -0.65000
v 2.23917 0.22054 -3.35000
v 2.23917 0.22054 -0.65000
v 2.20677 0.43895 -3.35000
v 2.20677 0.43895 -0.65000
v 2.15312 0.65314 -3.35000
v 2.15312 0.65314 -0.65000
v 2.07873 0.86104 -3.35000
v 2.07873 0.86104 -0.65000
v 1.98432 1.06064 -3.35000
v 1.98432 1.06064 -0.65000
v 1.87081 1.25003 -3.35000
v 1.87081 1.25003 -0.65000
v 1.73927 1.42738 -3.35000
v 1.73927 1.42738 -0.65000
v 1.59099 1.59099 -3.35000
v 1.59099 1.59099 -0.65000
v 1.42738 1.73927 -3.35000
v 1.42738 1.73927 -0.65000
v 1.25003 1.87081 -3.35000
v 1.25003 1.87081 -0.65000
v 1.06064 1.98432 -3.35000
v 1.06064 1.98432 -0.65000
v 0.86104 2.07873 -3.35000
v 0.86104 2.07873 -0.65000
v 0.65314 2.15312 -3.35000
v 0.65314 2.15312 -0.65000
v 0.43895 2.20677 -3.35000
v 0.43895 2.20677 -0.65000
v 0.22054 2.23917 -3.35000
v 0.22054 2.23917 -0.65000
v 0.00000 2.25000 -3.35000
v 0.00000 2.25000 -0.65000
v -0.22054 2.23917 -3.35000
v -0.22054 2.23917 -0.65000
v -0.43895 2.20677 -3.35000
v -0.43895 2.20677 -0.65000
v -0.65314 2.15312 -3.35000
v -0.65314 2.15312 -0.65000
v -0.86104 2.07873 -3.35000
v -0.86104 2.07873 -0.65000
v -1.06064 1.98432 -3.35000
v -1.06064 1.98432 -0.65000
v -1.25003 1.87081 -3.35000
v -1.25003 1.87081 -0.65000
v -1.42738 1.73927 -3.35000
v -1.42738 1.73927 -0.65000
v -1.59099 1.59099 -3.35000
v -1.59099 1.59099 -0.65000
v -1.73927 1.42738 -3.35000
v -1.73927 1.42738 -0.65000
v -1.87081 1.25003 -3.35000
v -1.87081 1.25003 -0.65000
v -1.98432 1.06064 -3.35000
v -1.98432 1.06064 -0.65000
v -2.07873 0.86104 -3.35000
v -2.07873 0.86104 -0.65000
v -2.15312 0.65314 -3.35000
v -2.15312 0.65314 -0.65000
v -2.20677 0.43895 -3.35000
v -2.20677 0.43895 -0.65000
v -2.23917 0.22054 -3.35000
v -2.23917 0.22054 -0.65000
v -2.25000 0.00000 -3.35000
v -2.25000 0.00000 -0.65000
v -2.23917 -0.22054 -3.35000
v -2.23917 -0.22054 -0.65000
v -2.20677 -0.43895 -3.35000
v -2.20677 -0.43895 -0.65000
v -2.15312 -0.65314 -3.35000
v -2.15312 -0.65314 -0.65000
v -2.07873 -0.86104 -3.35000
v -2.07873 -0.86104 -0.65000
v -1.98432 -1.06064 -3.35000
v -1.98432 -1.06064 -0.65000
v -1.87081 -1.25003 -3.35000
v -1.87081 -1.25003 -0.65000
v -1.73927 -1.42738 -3.35000
v -1.73927 -1.42738 -0.65000
v -1.59099 -1.59099 -3.35000
v -1.59099 -1.59099 -0.65000
v -1.42738 -1.73927 -3.35000
v -1.42738 -1.73927 -0.65000
v -1.25003 -1.87081 -3.35000
v -1.25003 -1.87081 -0.65000
v -1.06064 -1.98432 -3.35000
v -1.06064 -1.98432 -0.65000
v -0.86104 -2.07873 -3.35000
v -0.86104 -2.07873 -0.65000
v -0.65314 -2.15312 -3.35000
v -0.65314 -2.15312 -0.65000
v -0.43895 -2.20677 -3.35000
v -0.43895 -2.20677 -0.65000
v -0.22054 -2.23917 -3.35000
v -0.22054 -2.23917 -0.65000
v -0.00000 -2.25000 -3.35000
v -0.00000 -2.25000 -0.65000
v 0.22054 -2.23917 -3.35000
v 0.22054 -2.23917 -0.65000
v 0.43895 -2.20677 -3.35000
v 0.43895 -2.20677 -0.65000
v 0.65314 -2.15312 -3.35000
v 0.65314 -2.15312 -0.65000
v 0.86104 -2.07873 -3.35000
v 0.86104 -2.07873 -0.65000
v 1.06064 -1.98432 -3.35000
v 1.06064 -1.98432 -0.65000
v 1.25003 -1.87081 -3.35000
v 1.25003 -1.87081 -0.65000
v 1.42738 -1.73927 -3.35000
v 1.42738 -1.73927 -0.65000
v 1.59099 -1.59099 -3.35000
v 1.59099 -1.59099 -0.65000
v 1.73927 -1.42738 -3.35000
v 1.73927 -1.42738 -0.65000
v 1.87081 -1.25003 -3.35000
v 1.87081 -1.25003 -0.65000
v 1.98432 -1.06064 -3.35000
v 1.98432 -1.06064 -0.65000
v 2.07873 -0.86104 -3.35000
v 2.07873 -0.86104 -0.65000
v 2.15312 -0.65314 -3.35000
v 2.15312 -0.65314 -0.65000
v 2.20677 -0.43895 -3.35000
v 2.20677 -0.43895 -0.65000
v 2.23917 -0.22054 -3.35000
v 2.23917 -0.22054 -0.65000
v 0.00000 0.00000 -3.35000
v 0.00000 0.00000 -0.65000
v 2.35000 0.00000 -0.65000
v 2.55000 0.00000 0.00000
v 2.33868 0.23034 -0.65000
v 2.53772 0.24994 0.00000
v 2.30485 0.45846 -0.65000
v 2.50100 0.49748 0.00000
v 2.24881 0.68217 -0.65000
v 2.44020 0.74023 0.00000
v 2.17112 0.89931 -0.65000
v 2.35589 0.97584 0.00000
v 2.07251 1.10778 -0.65000
v 2.24890 1.20206 0.00000
v 1.95395 1.30559 -0.65000
v 2.12025 1.41670 0.00000
v 1.81657 1.49082 -0.65000
v 1.97118 1.61770 0.00000
v 1.66170 1.66170 -0.65000
v 1.80312 1.80312 0.00000
v 1.49082 1.81657 -0.65000
v 1.61770 1.97118 0.00000
v 1.30559 1.95395 -0.65000
v 1.41670 2.12025 0.00000
v 1.10778 2.07251 -0.65000
v 1.20206 2.24890 0.00000
v 0.89931 2.17112 -0.65000
v 0.97584 2.35589 0.00000
v 0.68217 2.24881 -0.65000
v 0.74023 2.44020 0.00000
v 0.45846 2.30485 -0.65000
v 0.49748 2.50100 0.00000
v 0.23034 2.33868 -0.65000
v 0.24994 2.53772 0.00000
v 0.00000 2.35000 -0.65000
v 0.00000 2.55000 0.00000
v -0.23034 2.33868 -0.65000
v -0.24994 2.53772 0.00000
v -0.45846 2.30485 -0.65000
v -0.49748 2.50100 0.00000
v -0.68217 2.24881 -0.65000
v -0.74023 2.44020 0.00000
v -0.89931 2.17112 -0.65000
v -0.97584 2.35589 0.00000
v -1.10778 2.07251 -0.65000
v -1.20206 2.24890 0.00000
v -1.30559 1.95395 -0.65000
v -1.41670 2.12025 0.00000
v -1.49082 1.81657 -0.65000
v -1.61770 1.97118 0.00000
v -1.66170 1.66170 -0.65000
v -1.80312 1.80312 0.00000
v -1.81657 1.49082 -0.65000
v -1.97118 1.61770 0.00000
v -1.95395 1.30559 -0.65000
v -2.12025 1.41670 0.00000
v -2.07251 1.10778 -0.65000
v -2.24890 1.20206 0.00000
v -2.17112 0.89931 -0.65000
v -2.35589 0.97584 0.00000
v -2.24881 0.68217 -0.65000
v -2.44020 0.74023 0.00000
v -2.30485 0.45846 -0.65000
v -2.50100 0.49748 0.00000
v -2.33868 0.23034 -0.65000
v -2.53772 0.24994 0.00000
v -2.35000 0.00000 -0.65000
v -2.55000 0.00000 0.00000
v -2.33868 -0.23034 -0.65000
v -2.53772 -0.24994 0.00000
v -2.30485 -0.45846 -0.65000
v -2.50100 -0.49748 0.00000
v -2.24881 -0.68217 -0.65000
v -2.44020 -0.74023 0.00000
v -2.17112 -0.89931 -0.65000
v -2.35589 -0.97584 0.00000
v -2.07251 -1.10778 -0.65000
v -2.24890 -1.20206 0.00000
v -1.95395 -1.30559 -0.65000
v -2.12025 -1.41670 0.00000
v -1.81657 -1.49082 -0.65000
v -1.97118 -1.61770 0.00000
v -1.66170 -1.66170 -0.65000
v -1.80312 -1.80312 0.00000
v -1.49082 -1.81657 -0.65000
v -1.61770 -1.97118 0.00000
v -1.30559 -1.95395 -0.65000
v -1.41670 -2.12025 0.00000
v -1.10778 -2.07251 -0.65000
v -1.20206 -2.24890 0.00000
v -0.89931 -2.17112 -0.65000
v -0.97584 -2.35589 0.00000
v -0.68217 -2.24881 -0.65000
v -0.74023 -2.44020 0.00000
v -0.45846 -2.30485 -0.65000
v -0.49748 -2.50100 0.00000
v -0.23034 -2.33868 -0.65000
v -0.24994 -2.53772 0.00000
v -0.00000 -2.35000 -0.65000
v -0.00000 -2.55000 0.00000
v 0.23034 -2.33868 -0.65000
v 0.24994 -2.53772 0.00000
v 0.45846 -2.30485 -0.65000
v 0.49748 -2.50100 0.00000
v 0.68217 -2.24881 -0.65000
v 0.74023 -2.44020 0.00000
v 0.89931 -2.17112 -0.65000
v 0.97584 -2.35589 0.00000
v 1.10778 -2.07251 -0.65000
v 1.20206 -2.24890 0.00000
v 1.30559 -1.95395 -0.65000
v 1.41670 -2.12025 0.00000
v 1.49082 -1.81657 -0.65000
v 1.61770 -1.97118 0.00000
v 1.66170 -1.66170 -0.65000
v 1.80312 -1.80312 0.00000
v 1.81657 -1.49082 -0.65000
v 1.97118 -1.61770 0.00000
v 1.95395 -1.30559 -0.65000
v 2.12025 -1.41670 0.00000
v 2.07251 -1.10778 -0.65000
v 2.24890 -1.20206 0.00000
v 2.17112 -0.89931 -0.65000
v 2.35589 -0.97584 0.00000
v 2.24881 -0.68217 -0.65000
v 2.44020 -0.74023 0.00000
v 2.30485 -0.45846 -0.65000
v 2.50100 -0.49748 0.00000
v 2.33868 -0.23034 -0.65000
v 2.53772 -0.24994 0.00000
v 0.00000 0.00000 -0.65000
v 0.00000 0.00000 0.00000
v 2.51000 0.00000 0.00000
v 0.72000 0.00000 3.30000
v 2.49791 0.24602 0.00000
v 0.71653 0.07057 3.30000
v 2.46177 0.48968 0.00000
v 0.70617 0.14047 3.30000
v 2.40192 0.72861 0.00000
v 0.68900 0.20900 3.30000
v 2.31894 0.96054 0.00000
v 0.66519 0.27553 3.30000
v 2.21362 1.18321 0.00000
v 0.63498 0.33941 3.30000
v 2.08699 1.39448 0.00000
v 0.59866 0.40001 3.30000
v 1.94026 1.59233 0.00000
v 0.55657 0.45676 3.30000
v 1.77484 1.77484 0.00000
v 0.50912 0.50912 3.30000
v 1.59233 1.94026 0.00000
v 0.45676 0.55657 3.30000
v 1.39448 2.08699 0.00000
v 0.40001 0.59866 3.30000
v 1.18321 2.21362 0.00000
v 0.33941 0.63498 3.30000
v 0.96054 2.31894 0.00000
v 0.27553 0.66519 3.30000
v 0.72861 2.40192 0.00000
v 0.20900 0.68900 3.30000
v 0.48968 2.46177 0.00000
v 0.14047 0.70617 3.30000
v 0.24602 2.49791 0.00000
v 0.07057 0.71653 3.30000
v 0.00000 2.51000 0.00000
v 0.00000 0.72000 3.30000
v -0.24602 2.49791 0.00000
v -0.07057 0.71653 3.30000
v -0.48968 2.46177 0.00000
v -0.14047 0.70617 3.30000
v -0.72861 2.40192 0.00000
v -0.20900 0.68900 3.30000
v -0.96054 2.31894 0.00000
v -0.27553 0.66519 3.30000
v -1.18321 2.21362 0.00000
v -0.33941 0.63498 3.30000
v -1.39448 2.08699 0.00000
v -0.40001 0.59866 3.30000
v -1.59233 1.94026 0.00000
v -0.45676 0.55657 3.30000
v -1.77484 1.77484 0.00000
v -0.50912 0.50912 3.30000
v -1.94026 1.59233 0.00000
v -0.55657 0.45676 3.30000
v -2.08699 1.39448 0.00000
v -0.59866 0.40001 3.30000
v -2.21362 1.18321 0.00000
v -0.63498 0.33941 3.30000
v -2.31894 0.96054 0.00000
v -0.66519 0.27553 3.30000
v -2.40192 0.72861 0.00000
v -0.68900 0.20900 3.30000
v -2.46177 0.48968 0.00000
v -0.70617 0.14047 3.30000
v -2.49791 0.24602 0.00000
v -0.71653 0.07057 3.30000
v -2.51000 0.00000 0.00000
v -0.72000 0.00000 3.30000
v -2.49791 -0.24602 0.00000
v -0.71653 -0.07057 3.30000
v -2.46177 -0.48968 0.00000
v -0.70617 -0.14047 3.30000
v -2.40192 -0.72861 0.00000
v -0.68900 -0.20900 3.30000
v -2.31894 -0.96054 0.00000
v -0.66519 -0.27553 3.30000
v -2.21362 -1.18321 0.00000
v -0.63498 -0.33941 3.30000
v -2.08699 -1.39448 0.00000
v -0.59866 -0.40001 3.30000
v -1.94026 -1.59233 0.00000
v -0.55657 -0.45676 3.30000
v -1.77484 -1.77484 0.00000
v -0.50912 -0.50912 3.30000
v -1.59233 -1.94026 0.00000
v -0.45676 -0.55657 3.30000
v -1.39448 -2.08699 0.00000
v -0.40001 -0.59866 3.30000
v -1.18321 -2.21362 0.00000
v -0.33941 -0.63498 3.30000
v -0.96054 -2.31894 0.00000
v -0.27553 -0.66519 3.30000
v -0.72861 -2.40192 0.00000
v -0.20900 -0.68900 3.30000
v -0.48968 -2.46177 0.00000
v -0.14047 -0.70617 3.30000
v -0.24602 -2.49791 0.00000
v -0.07057 -0.71653 3.30000
v -0.00000 -2.51000 0.00000
v -0.00000 -0.72000 3.30000
v 0.24602 -2.49791 0.00000
v 0.07057 -0.71653 3.30000
v 0.48968 -2.46177 0.00000
v 0.14047 -0.70617 3.30000
v 0.72861 -2.40192 0.00000
v 0.20900 -0.68900 3.30000
v 0.96054 -2.31894 0.00000
v 0.27553 -0.66519 3.30000
v 1.18321 -2.21362 0.00000
v 0.33941 -0.63498 3.30000
v 1.39448 -2.08699 0.00000
v 0.40001 -0.59866 3.30000
v 1.59233 -1.94026 0.00000
v 0.45676 -0.55657 3.30000
v 1.77484 -1.77484 0.00000
v 0.50912 -0.50912 3.30000
v 1.94026 -1.59233 0.00000
v 0.55657 -0.45676 3.30000
v 2.08699 -1.39448 0.00000
v 0.59866 -0.40001 3.30000
v 2.21362 -1.18321 0.00000
v 0.63498 -0.33941 3.30000
v 2.31894 -0.96054 0.00000
v 0.66519 -0.27553 3.30000
v 2.40192 -0.72861 0.00000
v 0.68900 -0.20900 3.30000
v 2.46177 -0.48968 0.00000
v 0.70617 -0.14047 3.30000
v 2.49791 -0.24602 0.00000
v 0.71653 -0.07057 3.30000
v 0.00000 0.00000 0.00000
v 0.00000 0.00000 3.30000
v 0.58000 0.00000 3.30000
v 0.58000 0.00000 3.62000
v 0.57504 0.07571 3.30000
v 0.57504 0.07571 3.62000
v 0.56024 0.15012 3.30000
v 0.56024 0.15012 3.62000
v 0.53585 0.22196 3.30000
v 0.53585 0.22196 3.62000
v 0.50229 0.29000 3.30000
v 0.50229 0.29000 3.62000
v 0.46014 0.35308 3.30000
v 0.46014 0.35308 3.62000
v 0.41012 0.41012 3.30000
v 0.41012 0.41012 3.62000
v 0.35308 0.46014 3.30000
v 0.35308 0.46014 3.62000
v 0.29000 0.50229 3.30000
v 0.29000 0.50229 3.62000
v 0.22196 0.53585 3.30000
v 0.22196 0.53585 3.62000
v 0.15012 0.56024 3.30000
v 0.15012 0.56024 3.62000
v 0.07571 0.57504 3.30000
v 0.07571 0.57504 3.62000
v 0.00000 0.58000 3.30000
v 0.00000 0.58000 3.62000
v -0.07571 0.57504 3.30000
v -0.07571 0.57504 3.62000
v -0.15012 0.56024 3.30000
v -0.15012 0.56024 3.62000
v -0.22196 0.53585 3.30000
v -0.22196 0.53585 3.62000
v -0.29000 0.50229 3.30000
v -0.29000 0.50229 3.62000
v -0.35308 0.46014 3.30000
v -0.35308 0.46014 3.62000
v -0.41012 0.41012 3.30000
v -0.41012 0.41012 3.62000
v -0.46014 0.35308 3.30000
v -0.46014 0.35308 3.62000
v -0.50229 0.29000 3.30000
v -0.50229 0.29000 3.62000
v -0.53585 0.22196 3.30000
v -0.53585 0.22196 3.62000
v -0.56024 0.15012 3.30000
v -0.56024 0.15012 3.62000
v -0.57504 0.07571 3.30000
v -0.57504 0.07571 3.62000
v -0.58000 0.00000 3.30000
v -0.58000 0.00000 3.62000
v -0.57504 -0.07571 3.30000
v -0.57504 -0.07571 3.62000
v -0.56024 -0.15012 3.30000
v -0.56024 -0.15012 3.62000
v -0.53585 -0.22196 3.30000
v -0.53585 -0.22196 3.62000
v -0.50229 -0.29000 3.30000
v -0.50229 -0.29000 3.62000
v -0.46014 -0.35308 3.30000
v -0.46014 -0.35308 3.62000
v -0.41012 -0.41012 3.30000
v -0.41012 -0.41012 3.62000
v -0.35308 -0.46014 3.30000
v -0.35308 -0.46014 3.62000
v -0.29000 -0.50229 3.30000
v -0.29000 -0.50229 3.62000
v -0.22196 -0.53585 3.30000
v -0.22196 -0.53585 3.62000
v -0.15012 -0.56024 3.30000
v -0.15012 -0.56024 3.62000
v -0.07571 -0.57504 3.30000
v -0.07571 -0.57504 3.62000
v -0.00000 -0.58000 3.30000
v -0.00000 -0.58000 3.62000
v 0.07571 -0.57504 3.30000
v 0.07571 -0.57504 3.62000
v 0.15012 -0.56024 3.30000
v 0.15012 -0.56024 3.62000
v 0.22196 -0.53585 3.30000
v 0.22196 -0.53585 3.62000
v 0.29000 -0.50229 3.30000
v 0.29000 -0.50229 3.62000
v 0.35308 -0.46014 3.30000
v 0.35308 -0.46014 3.62000
v 0.41012 -0.41012 3.30000
v 0.41012 -0.41012 3.62000
v 0.46014 -0.35308 3.30000
v 0.46014 -0.35308 3.62000
v 0.50229 -0.29000 3.30000
v 0.50229 -0.29000 3.62000
v 0.53585 -0.22196 3.30000
v 0.53585 -0.22196 3.62000
v 0.56024 -0.15012 3.30000
v 0.56024 -0.15012 3.62000
v 0.57504 -0.07571 3.30000
v 0.57504 -0.07571 3.62000
v 0.00000 0.00000 3.30000
v 0.00000 0.00000 3.62000
v 0.38000 0.00000 3.62000
v 0.38000 0.00000 3.78000
v 0.37675 0.04960 3.62000
v 0.37675 0.04960 3.78000
v 0.36705 0.09835 3.62000
v 0.36705 0.09835 3.78000
v 0.35107 0.14542 3.62000
v 0.35107 0.14542 3.78000
v 0.32909 0.19000 3.62000
v 0.32909 0.19000 3.78000
v 0.30147 0.23133 3.62000
v 0.30147 0.23133 3.78000
v 0.26870 0.26870 3.62000
v 0.26870 0.26870 3.78000
v 0.23133 0.30147 3.62000
v 0.23133 0.30147 3.78000
v 0.19000 0.32909 3.62000
v 0.19000 0.32909 3.78000
v 0.14542 0.35107 3.62000
v 0.14542 0.35107 3.78000
v 0.09835 0.36705 3.62000
v 0.09835 0.36705 3.78000
v 0.04960 0.37675 3.62000
v 0.04960 0.37675 3.78000
v 0.00000 0.38000 3.62000
v 0.00000 0.38000 3.78000
v -0.04960 0.37675 3.62000
v -0.04960 0.37675 3.78000
v -0.09835 0.36705 3.62000
v -0.09835 0.36705 3.78000
v -0.14542 0.35107 3.62000
v -0.14542 0.35107 3.78000
v -0.19000 0.32909 3.62000
v -0.19000 0.32909 3.78000
v -0.23133 0.30147 3.62000
v -0.23133 0.30147 3.78000
v -0.26870 0.26870 3.62000
v -0.26870 0.26870 3.78000
v -0.30147 0.23133 3.62000
v -0.30147 0.23133 3.78000
v -0.32909 0.19000 3.62000
v -0.32909 0.19000 3.78000
v -0.35107 0.14542 3.62000
v -0.35107 0.14542 3.78000
v -0.36705 0.09835 3.62000
v -0.36705 0.09835 3.78000
v -0.37675 0.04960 3.62000
v -0.37675 0.04960 3.78000
v -0.38000 0.00000 3.62000
v -0.38000 0.00000 3.78000
v -0.37675 -0.04960 3.62000
v -0.37675 -0.04960 3.78000
v -0.36705 -0.09835 3.62000
v -0.36705 -0.09835 3.78000
v -0.35107 -0.14542 3.62000
v -0.35107 -0.14542 3.78000
v -0.32909 -0.19000 3.62000
v -0.32909 -0.19000 3.78000
v -0.30147 -0.23133 3.62000
v -0.30147 -0.23133 3.78000
v -0.26870 -0.26870 3.62000
v -0.26870 -0.26870 3.78000
v -0.23133 -0.30147 3.62000
v -0.23133 -0.30147 3.78000
v -0.19000 -0.32909 3.62000
v -0.19000 -0.32909 3.78000
v -0.14542 -0.35107 3.62000
v -0.14542 -0.35107 3.78000
v -0.09835 -0.36705 3.62000
v -0.09835 -0.36705 3.78000
v -0.04960 -0.37675 3.62000
v -0.04960 -0.37675 3.78000
v -0.00000 -0.38000 3.62000
v -0.00000 -0.38000 3.78000
v 0.04960 -0.37675 3.62000
v 0.04960 -0.37675 3.78000
v 0.09835 -0.36705 3.62000
v 0.09835 -0.36705 3.78000
v 0.14542 -0.35107 3.62000
v 0.14542 -0.35107 3.78000
v 0.19000 -0.32909 3.62000
v 0.19000 -0.32909 3.78000
v 0.23133 -0.30147 3.62000
v 0.23133 -0.30147 3.78000
v 0.26870 -0.26870 3.62000
v 0.26870 -0.26870 3.78000
v 0.30147 -0.23133 3.62000
v 0.30147 -0.23133 3.78000
v 0.32909 -0.19000 3.62000
v 0.32909 -0.19000 3.78000
v 0.35107 -0.14542 3.62000
v 0.35107 -0.14542 3.78000
v 0.36705 -0.09835 3.62000
v 0.36705 -0.09835 3.78000
v 0.37675 -0.04960 3.62000
v 0.37675 -0.04960 3.78000
v 0.00000 0.00000 3.62000
v 0.00000 0.00000 3.78000
v 0.35000 0.00000 -4.65000
v 0.75000 0.00000 -4.00000
v 0.34569 0.05475 -4.65000
v 0.74077 0.11733 -4.00000
v 0.33287 0.10816 -4.65000
v 0.71329 0.23176 -4.00000
v 0.31185 0.15890 -4.65000
v 0.66825 0.34049 -4.00000
v 0.28316 0.20572 -4.65000
v 0.60676 0.44084 -4.00000
v 0.24749 0.24749 -4.65000
v 0.53033 0.53033 -4.00000
v 0.20572 0.28316 -4.65000
v 0.44084 0.60676 -4.00000
v 0.15890 0.31185 -4.65000
v 0.34049 0.66825 -4.00000
v 0.10816 0.33287 -4.65000
v 0.23176 0.71329 -4.00000
v 0.05475 0.34569 -4.65000
v 0.11733 0.74077 -4.00000
v 0.00000 0.35000 -4.65000
v 0.00000 0.75000 -4.00000
v -0.05475 0.34569 -4.65000
v -0.11733 0.74077 -4.00000
v -0.10816 0.33287 -4.65000
v -0.23176 0.71329 -4.00000
v -0.15890 0.31185 -4.65000
v -0.34049 0.66825 -4.00000
v -0.20572 0.28316 -4.65000
v -0.44084 0.60676 -4.00000
v -0.24749 0.24749 -4.65000
v -0.53033 0.53033 -4.00000
v -0.28316 0.20572 -4.65000
v -0.60676 0.44084 -4.00000
v -0.31185 0.15890 -4.65000
v -0.66825 0.34049 -4.00000
v -0.33287 0.10816 -4.65000
v -0.71329 0.23176 -4.00000
v -0.34569 0.05475 -4.65000
v -0.74077 0.11733 -4.00000
v -0.35000 0.00000 -4.65000
v -0.75000 0.00000 -4.00000
v -0.34569 -0.05475 -4.65000
v -0.74077 -0.11733 -4.00000
v -0.33287 -0.10816 -4.65000
v -0.71329 -0.23176 -4.00000
v -0.31185 -0.15890 -4.65000
v -0.66825 -0.34049 -4.00000
v -0.28316 -0.20572 -4.65000
v -0.60676 -0.44084 -4.00000
v -0.24749 -0.24749 -4.65000
v -0.53033 -0.53033 -4.00000
v -0.20572 -0.28316 -4.65000
v -0.44084 -0.60676 -4.00000
v -0.15890 -0.31185 -4.65000
v -0.34049 -0.66825 -4.00000
v -0.10816 -0.33287 -4.65000
v -0.23176 -0.71329 -4.00000
v -0.05475 -0.34569 -4.65000
v -0.11733 -0.74077 -4.00000
v -0.00000 -0.35000 -4.65000
v -0.00000 -0.75000 -4.00000
v 0.05475 -0.34569 -4.65000
v 0.11733 -0.74077 -4.00000
v 0.10816 -0.33287 -4.65000
v 0.23176 -0.71329 -4.00000
v 0.15890 -0.31185 -4.65000
v 0.34049 -0.66825 -4.00000
v 0.20572 -0.28316 -4.65000
v 0.44084 -0.60676 -4.00000
v 0.24749 -0.24749 -4.65000
v 0.53033 -0.53033 -4.00000
v 0.28316 -0.20572 -4.65000
v 0.60676 -0.44084 -4.00000
v 0.31185 -0.15890 -4.65000
v 0.66825 -0.34049 -4.00000
v 0.33287 -0.10816 -4.65000
v 0.71329 -0.23176 -4.00000
v 0.34569 -0.05475 -4.65000
v 0.74077 -0.11733 -4.00000
v 0.28000 0.00000 -4.05000
v 0.28000 0.00000 -3.85000
v 0.27462 0.05463 -4.05000
v 0.27462 0.05463 -3.85000
v 0.25869 0.10715 -4.05000
v 0.25869 0.10715 -3.85000
v 0.23281 0.15556 -4.05000
v 0.23281 0.15556 -3.85000
v 0.19799 0.19799 -4.05000
v 0.19799 0.19799 -3.85000
v 0.15556 0.23281 -4.05000
v 0.15556 0.23281 -3.85000
v 0.10715 0.25869 -4.05000
v 0.10715 0.25869 -3.85000
v 0.05463 0.27462 -4.05000
v 0.05463 0.27462 -3.85000
v 0.00000 0.28000 -4.05000
v 0.00000 0.28000 -3.85000
v -0.05463 0.27462 -4.05000
v -0.05463 0.27462 -3.85000
v -0.10715 0.25869 -4.05000
v -0.10715 0.25869 -3.85000
v -0.15556 0.23281 -4.05000
v -0.15556 0.23281 -3.85000
v -0.19799 0.19799 -4.05000
v -0.19799 0.19799 -3.85000
v -0.23281 0.15556 -4.05000
v -0.23281 0.15556 -3.85000
v -0.25869 0.10715 -4.05000
v -0.25869 0.10715 -3.85000
v -0.27462 0.05463 -4.05000
v -0.27462 0.05463 -3.85000
v -0.28000 0.00000 -4.05000
v -0.28000 0.00000 -3.85000
v -0.27462 -0.05463 -4.05000
v -0.27462 -0.05463 -3.85000
v -0.25869 -0.10715 -4.05000
v -0.25869 -0.10715 -3.85000
v -0.23281 -0.15556 -4.05000
v -0.23281 -0.15556 -3.85000
v -0.19799 -0.19799 -4.05000
v -0.19799 -0.19799 -3.85000
v -0.15556 -0.23281 -4.05000
v -0.15556 -0.23281 -3.85000
v -0.10715 -0.25869 -4.05000
v -0.10715 -0.25869 -3.85000
v -0.05463 -0.27462 -4.05000
v -0.05463 -0.27462 -3.85000
v -0.00000 -0.28000 -4.05000
v -0.00000 -0.28000 -3.85000
v 0.05463 -0.27462 -4.05000
v 0.05463 -0.27462 -3.85000
v 0.10715 -0.25869 -4.05000
v 0.10715 -0.25869 -3.85000
v 0.15556 -0.23281 -4.05000
v 0.15556 -0.23281 -3.85000
v 0.19799 -0.19799 -4.05000
v 0.19799 -0.19799 -3.85000
v 0.23281 -0.15556 -4.05000
v 0.23281 -0.15556 -3.85000
v 0.25869 -0.10715 -4.05000
v 0.25869 -0.10715 -3.85000
v 0.27462 -0.05463 -4.05000
v 0.27462 -0.05463 -3.85000
v 0.00000 0.00000 -4.05000
v 0.00000 0.00000 -3.85000
v 2.49000 -0.04000 -3.10000
v 2.49000 -0.04000 -0.90000
v 2.07000 -0.04000 -3.10000
v 2.07000 -0.04000 -0.90000
v 2.49000 0.04000 -3.10000
v 2.49000 0.04000 -0.90000
v 2.07000 0.04000 -3.10000
v 2.07000 0.04000 -0.90000
v 1.78898 1.73241 -3.10000
v 1.78898 1.73241 -0.90000
v 1.49200 1.43543 -3.10000
v 1.49200 1.43543 -0.90000
v 1.73241 1.78898 -3.10000
v 1.73241 1.78898 -0.90000
v 1.43543 1.49200 -3.10000
v 1.43543 1.49200 -0.90000
v 0.04000 2.49000 -3.10000
v 0.04000 2.49000 -0.90000
v 0.04000 2.07000 -3.10000
v 0.04000 2.07000 -0.90000
v -0.04000 2.49000 -3.10000
v -0.04000 2.49000 -0.90000
v -0.04000 2.07000 -3.10000
v -0.04000 2.07000 -0.90000
v -1.73241 1.78898 -3.10000
v -1.73241 1.78898 -0.90000
v -1.43543 1.49200 -3.10000
v -1.43543 1.49200 -0.90000
v -1.78898 1.73241 -3.10000
v -1.78898 1.73241 -0.90000
v -1.49200 1.43543 -3.10000
v -1.49200 1.43543 -0.90000
v -2.49000 0.04000 -3.10000
v -2.49000 0.04000 -0.90000
v -2.07000 0.04000 -3.10000
v -2.07000 0.04000 -0.90000
v -2.49000 -0.04000 -3.10000
v -2.49000 -0.04000 -0.90000
v -2.07000 -0.04000 -3.10000
v -2.07000 -0.04000 -0.90000
v -1.78898 -1.73241 -3.10000
v -1.78898 -1.73241 -0.90000
v -1.49200 -1.43543 -3.10000
v -1.49200 -1.43543 -0.90000
v -1.73241 -1.78898 -3.10000
v -1.73241 -1.78898 -0.90000
v -1.43543 -1.49200 -3.10000
v -1.43543 -1.49200 -0.90000
v -0.04000 -2.49000 -3.10000
v -0.04000 -2.49000 -0.90000
v -0.04000 -2.07000 -3.10000
v -0.04000 -2.07000 -0.90000
v 0.04000 -2.49000 -3.10000
v 0.04000 -2.49000 -0.90000
v 0.04000 -2.07000 -3.10000
v 0.04000 -2.07000 -0.90000
v 1.73241 -1.78898 -3.10000
v 1.73241 -1.78898 -0.90000
v 1.43543 -1.49200 -3.10000
v 1.43543 -1.49200 -0.90000
v 1.78898 -1.73241 -3.10000
v 1.78898 -1.73241 -0.90000
v 1.49200 -1.43543 -3.10000
v 1.49200 -1.43543 -0.90000
v 0.89953 -0.78974 1.91000
v 0.89953 -0.78974 2.19000
v 0.87304 -0.77566 1.91000
v 0.87304 -0.77566 2.19000
v 1.15774 -0.30412 1.91000
v 1.15774 -0.30412 2.19000
v 1.13125 -0.29004 1.91000
v 1.13125 -0.29004 2.19000
v 1.16500 -0.27500 1.91000
v 1.16500 -0.27500 2.19000
v 1.13500 -0.27500 1.91000
v 1.13500 -0.27500 2.19000
v 1.16500 0.27500 1.91000
v 1.16500 0.27500 2.19000
v 1.13500 0.27500 1.91000
v 1.13500 0.27500 2.19000
v 1.15774 0.30412 1.91000
v 1.15774 0.30412 2.19000
v 1.13125 0.29004 1.91000
v 1.13125 0.29004 2.19000
v 0.89953 0.78974 1.91000
v 0.89953 0.78974 2.19000
v 0.87304 0.77566 1.91000
v 0.87304 0.77566 2.19000
v 0.16000 1.46500 1.44000
v 0.16000 1.46500 1.66000
v 0.16000 1.43500 1.44000
v 0.16000 1.43500 1.66000
v -0.16000 1.46500 1.44000
v -0.16000 1.46500 1.66000
v -0.16000 1.43500 1.44000
v -0.16000 1.43500 1.66000
v -0.16000 -1.46500 1.44000
v -0.16000 -1.46500 1.66000
v -0.16000 -1.43500 1.44000
v -0.16000 -1.43500 1.66000
v 0.16000 -1.46500 1.44000
v 0.16000 -1.46500 1.66000
v 0.16000 -1.43500 1.44000
v 0.16000 -1.43500 1.66000
v -1.10829 0.97135 1.44000
v -1.10829 0.97135 1.66000
v -1.08371 0.95415 1.44000
v -1.08371 0.95415 1.66000
v -1.29183 0.70923 1.44000
v -1.29183 0.70923 1.66000
v -1.26726 0.69202 1.44000
v -1.26726 0.69202 1.66000
v -1.29183 -0.70923 1.44000
v -1.29183 -0.70923 1.66000
v -1.26726 -0.69202 1.44000
v -1.26726 -0.69202 1.66000
v -1.10829 -0.97135 1.44000
v -1.10829 -0.97135 1.66000
v -1.08371 -0.95415 1.44000
v -1.08371 -0.95415 1.66000
v 2.25000 -0.09000 -1.64000
v 2.25000 -0.09000 -1.46000
v 2.25000 0.09000 -1.64000
v 2.25000 0.09000 -1.46000
v 2.75000 -0.09000 -1.64000
v 2.75000 -0.09000 -1.46000
v 2.75000 0.09000 -1.64000
v 2.75000 0.09000 -1.46000
v 2.80000 -0.96000 -1.58000
v 2.80000 -0.96000 -1.52000
v 2.80000 0.96000 -1.58000
v 2.80000 0.96000 -1.52000
v 4.93000 -0.96000 -1.58000
v 4.93000 -0.96000 -1.52000
v 4.93000 0.96000 -1.58000
v 4.93000 0.96000 -1.52000
v 2.80000 -0.33250 -1.51500
v 2.80000 -0.33250 -1.48500
v 2.80000 -0.30750 -1.51500
v 2.80000 -0.30750 -1.48500
v 4.93000 -0.33250 -1.51500
v 4.93000 -0.33250 -1.48500
v 4.93000 -0.30750 -1.51500
v 4.93000 -0.30750 -1.48500
v 2.80000 0.30750 -1.51500
v 2.80000 0.30750 -1.48500
v 2.80000 0.33250 -1.51500
v 2.80000 0.33250 -1.48500
v 4.93000 0.30750 -1.51500
v 4.93000 0.30750 -1.48500
v 4.93000 0.33250 -1.51500
v 4.93000 0.33250 -1.48500
v 3.85250 -0.96000 -1.50500
v 3.85250 -0.96000 -1.47500
v 3.85250 0.96000 -1.50500
v 3.85250 0.96000 -1.47500
v 3.87750 -0.96000 -1.50500
v 3.87750 -0.96000 -1.47500
v 3.87750 0.96000 -1.50500
v 3.87750 0.96000 -1.47500
v 5.01000 -0.96000 -1.58000
v 5.01000 -0.96000 -1.52000
v 5.01000 0.96000 -1.58000
v 5.01000 0.96000 -1.52000
v 7.14000 -0.96000 -1.58000
v 7.14000 -0.96000 -1.52000
v 7.14000 0.96000 -1.58000
v 7.14000 0.96000 -1.52000
v 5.01000 -0.33250 -1.51500
v 5.01000 -0.33250 -1.48500
v 5.01000 -0.30750 -1.51500
v 5.01000 -0.30750 -1.48500
v 7.14000 -0.33250 -1.51500
v 7.14000 -0.33250 -1.48500
v 7.14000 -0.30750 -1.51500
v 7.14000 -0.30750 -1.48500
v 5.01000 0.30750 -1.51500
v 5.01000 0.30750 -1.48500
v 5.01000 0.33250 -1.51500
v 5.01000 0.33250 -1.48500
v 7.14000 0.30750 -1.51500
v 7.14000 0.30750 -1.48500
v 7.14000 0.33250 -1.51500
v 7.14000 0.33250 -1.48500
v 6.06250 -0.96000 -1.50500
v 6.06250 -0.96000 -1.47500
v 6.06250 0.96000 -1.50500
v 6.06250 0.96000 -1.47500
v 6.08750 -0.96000 -1.50500
v 6.08750 -0.96000 -1.47500
v 6.08750 0.96000 -1.50500
v 6.08750 0.96000 -1.47500
v 7.22000 -0.96000 -1.58000
v 7.22000 -0.96000 -1.52000
v 7.22000 0.96000 -1.58000
v 7.22000 0.96000 -1.52000
v 9.35000 -0.96000 -1.58000
v 9.35000 -0.96000 -1.52000
v 9.35000 0.96000 -1.58000
v 9.35000 0.96000 -1.52000
v 7.22000 -0.33250 -1.51500
v 7.22000 -0.33250 -1.48500
v 7.22000 -0.30750 -1.51500
v 7.22000 -0.30750 -1.48500
v 9.35000 -0.33250 -1.51500
v 9.35000 -0.33250 -1.48500
v 9.35000 -0.30750 -1.51500
v 9.35000 -0.30750 -1.48500
v 7.22000 0.30750 -1.51500
v 7.22000 0.30750 -1.48500
v 7.22000 0.33250 -1.51500
v 7.22000 0.33250 -1.48500
v 9.35000 0.30750 -1.51500
v 9.35000 0.30750 -1.48500
v 9.35000 0.33250 -1.51500
v 9.35000 0.33250 -1.48500
v 8.27250 -0.96000 -1.50500
v 8.27250 -0.96000 -1.47500
v 8.27250 0.96000 -1.50500
v 8.27250 0.96000 -1.47500
v 8.29750 -0.96000 -1.50500
v 8.29750 -0.96000 -1.47500
v 8.29750 0.96000 -1.50500
v 8.29750 0.96000 -1.47500
v 9.31000 -0.96000 -1.59000
v 9.31000 -0.96000 -1.51000
v 9.31000 0.96000 -1.59000
v 9.31000 0.96000 -1.51000
v 9.39000 -0.96000 -1.59000
v 9.39000 -0.96000 -1.51000
v 9.39000 0.96000 -1.59000
v 9.39000 0.96000 -1.51000
v 0.09000 2.25000 -1.64000
v 0.09000 2.25000 -1.46000
v -0.09000 2.25000 -1.64000
v -0.09000 2.25000 -1.46000
v 0.09000 2.75000 -1.64000
v 0.09000 2.75000 -1.46000
v -0.09000 2.75000 -1.64000
v -0.09000 2.75000 -1.46000
v 0.96000 2.80000 -1.58000
v 0.96000 2.80000 -1.52000
v -0.96000 2.80000 -1.58000
v -0.96000 2.80000 -1.52000
v 0.96000 4.93000 -1.58000
v 0.96000 4.93000 -1.52000
v -0.96000 4.93000 -1.58000
v -0.96000 4.93000 -1.52000
v 0.33250 2.80000 -1.51500
v 0.33250 2.80000 -1.48500
v 0.30750 2.80000 -1.51500
v 0.30750 2.80000 -1.48500
v 0.33250 4.93000 -1.51500
v 0.33250 4.93000 -1.48500
v 0.30750 4.93000 -1.51500
v 0.30750 4.93000 -1.48500
v -0.30750 2.80000 -1.51500
v -0.30750 2.80000 -1.48500
v -0.33250 2.80000 -1.51500
v -0.33250 2.80000 -1.48500
v -0.30750 4.93000 -1.51500
v -0.30750 4.93000 -1.48500
v -0.33250 4.93000 -1.51500
v -0.33250 4.93000 -1.48500
v 0.96000 3.85250 -1.50500
v 0.96000 3.85250 -1.47500
v -0.96000 3.85250 -1.50500
v -0.96000 3.85250 -1.47500
v 0.96000 3.87750 -1.50500
v 0.96000 3.87750 -1.47500
v -0.96000 3.87750 -1.50500
v -0.96000 3.87750 -1.47500
v 0.96000 5.01000 -1.58000
v 0.96000 5.01000 -1.52000
v -0.96000 5.01000 -1.58000
v -0.96000 5.01000 -1.52000
v 0.96000 7.14000 -1.58000
v 0.96000 7.14000 -1.52000
v -0.96000 7.14000 -1.58000
v -0.96000 7.14000 -1.52000
v 0.33250 5.01000 -1.51500
v 0.33250 5.01000 -1.48500
v 0.30750 5.01000 -1.51500
v 0.30750 5.01000 -1.48500
v 0.33250 7.14000 -1.51500
v 0.33250 7.14000 -1.48500
v 0.30750 7.14000 -1.51500
v 0.30750 7.14000 -1.48500
v -0.30750 5.01000 -1.51500
v -0.30750 5.01000 -1.48500
v -0.33250 5.01000 -1.51500
v -0.33250 5.01000 -1.48500
v -0.30750 7.14000 -1.51500
v -0.30750 7.14000 -1.48500
v -0.33250 7.14000 -1.51500
v -0.33250 7.14000 -1.48500
v 0.96000 6.06250 -1.50500
v 0.96000 6.06250 -1.47500
v -0.96000 6.06250 -1.50500
v -0.96000 6.06250 -1.47500
v 0.96000 6.08750 -1.50500
v 0.96000 6.08750 -1.47500
v -0.96000 6.08750 -1.50500
v -0.96000 6.08750 -1.47500
v 0.96000 7.22000 -1.58000
v 0.96000 7.22000 -1.52000
v -0.96000 7.22000 -1.58000
v -0.96000 7.22000 -1.52000
v 0.96000 9.35000 -1.58000
v 0.96000 9.35000 -1.52000
v -0.96000 9.35000 -1.58000
v -0.96000 9.35000 -1.52000
v 0.33250 7.22000 -1.51500
v 0.33250 7.22000 -1.48500
v 0.30750 7.22000 -1.51500
v 0.30750 7.22000 -1.48500
v 0.33250 9.35000 -1.51500
v 0.33250 9.35000 -1.48500
v 0.30750 9.35000 -1.51500
v 0.30750 9.35000 -1.48500
v -0.30750 7.22000 -1.51500
v -0.30750 7.22000 -1.48500
v -0.33250 7.22000 -1.51500
v -0.33250 7.22000 -1.48500
v -0.30750 9.35000 -1.51500
v -0.30750 9.35000 -1.48500
v -0.33250 9.35000 -1.51500
v -0.33250 9.35000 -1.48500
v 0.96000 8.27250 -1.50500
v 0.96000 8.27250 -1.47500
v -0.96000 8.27250 -1.50500
v -0.96000 8.27250 -1.47500
v 0.96000 8.29750 -1.50500
v 0.96000 8.29750 -1.47500
v -0.96000 8.29750 -1.50500
v -0.96000 8.29750 -1.47500
v 0.96000 9.31000 -1.59000
v 0.96000 9.31000 -1.51000
v -0.96000 9.31000 -1.59000
v -0.96000 9.31000 -1.51000
v 0.96000 9.39000 -1.59000
v 0.96000 9.39000 -1.51000
v -0.96000 9.39000 -1.59000
v -0.96000 9.39000 -1.51000
v -2.25000 0.09000 -1.64000
v -2.25000 0.09000 -1.46000
v -2.25000 -0.09000 -1.64000
v -2.25000 -0.09000 -1.46000
v -2.75000 0.09000 -1.64000
v -2.75000 0.09000 -1.46000
v -2.75000 -0.09000 -1.64000
v -2.75000 -0.09000 -1.46000
v -2.80000 0.96000 -1.58000
v -2.80000 0.96000 -1.52000
v -2.80000 -0.96000 -1.58000
v -2.80000 -0.96000 -1.52000
v -4.93000 0.96000 -1.58000
v -4.93000 0.96000 -1.52000
v -4.93000 -0.96000 -1.58000
v -4.93000 -0.96000 -1.52000
v -2.80000 0.33250 -1.51500
v -2.80000 0.33250 -1.48500
v -2.80000 0.30750 -1.51500
v -2.80000 0.30750 -1.48500
v -4.93000 0.33250 -1.51500
v -4.93000 0.33250 -1.48500
v -4.93000 0.30750 -1.51500
v -4.93000 0.30750 -1.48500
v -2.80000 -0.30750 -1.51500
v -2.80000 -0.30750 -1.48500
v -2.80000 -0.33250 -1.51500
v -2.80000 -0.33250 -1.48500
v -4.93000 -0.30750 -1.51500
v -4.93000 -0.30750 -1.48500
v -4.93000 -0.33250 -1.51500
v -4.93000 -0.33250 -1.48500
v -3.85250 0.96000 -1.50500
v -3.85250 0.96000 -1.47500
v -3.85250 -0.96000 -1.50500
v -3.85250 -0.96000 -1.47500
v -3.87750 0.96000 -1.50500
v -3.87750 0.96000 -1.47500
v -3.87750 -0.96000 -1.50500
v -3.87750 -0.96000 -1.47500
v -5.01000 0.96000 -1.58000
v -5.01000 0.96000 -1.52000
v -5.01000 -0.96000 -1.58000
v -5.01000 -0.96000 -1.52000
v -7.14000 0.96000 -1.58000
v -7.14000 0.96000 -1.52000
v -7.14000 -0.96000 -1.58000
v -7.14000 -0.96000 -1.52000
v -5.01000 0.33250 -1.51500
v -5.01000 0.33250 -1.48500
v -5.01000 0.30750 -1.51500
v -5.01000 0.30750 -1.48500
v -7.14000 0.33250 -1.51500
v -7.14000 0.33250 -1.48500
v -7.14000 0.30750 -1.51500
v -7.14000 0.30750 -1.48500
v -5.01000 -0.30750 -1.51500
v -5.01000 -0.30750 -1.48500
v -5.01000 -0.33250 -1.51500
v -5.01000 -0.33250 -1.48500
v -7.14000 -0.30750 -1.51500
v -7.14000 -0.30750 -1.48500
v -7.14000 -0.33250 -1.51500
v -7.14000 -0.33250 -1.48500
v -6.06250 0.96000 -1.50500
v -6.06250 0.96000 -1.47500
v -6.06250 -0.96000 -1.50500
v -6.06250 -0.96000 -1.47500
v -6.08750 0.96000 -1.50500
v -6.08750 0.96000 -1.47500
v -6.08750 -0.96000 -1.50500
v -6.08750 -0.96000 -1.47500
v -7.22000 0.96000 -1.58000
v -7.22000 0.96000 -1.52000
v -7.22000 -0.96000 -1.58000
v -7.22000 -0.96000 -1.52000
v -9.35000 0.96000 -1.58000
v -9.35000 0.96000 -1.52000
v -9.35000 -0.96000 -1.58000
v -9.35000 -0.96000 -1.52000
v -7.22000 0.33250 -1.51500
v -7.22000 0.33250 -1.48500
v -7.22000 0.30750 -1.51500
v -7.22000 0.30750 -1.48500
v -9.35000 0.33250 -1.51500
v -9.35000 0.33250 -1.48500
v -9.35000 0.30750 -1.51500
v -9.35000 0.30750 -1.48500
v -7.22000 -0.30750 -1.51500
v -7.22000 -0.30750 -1.48500
v -7.22000 -0.33250 -1.51500
v -7.22000 -0.33250 -1.48500
v -9.35000 -0.30750 -1.51500
v -9.35000 -0.30750 -1.48500
v -9.35000 -0.33250 -1.51500
v -9.35000 -0.33250 -1.48500
v -8.27250 0.96000 -1.50500
v -8.27250 0.96000 -1.47500
v -8.27250 -0.96000 -1.50500
v -8.27250 -0.96000 -1.47500
v -8.29750 0.96000 -1.50500
v -8.29750 0.96000 -1.47500
v -8.29750 -0.96000 -1.50500
v -8.29750 -0.96000 -1.47500
v -9.31000 0.96000 -1.59000
v -9.31000 0.96000 -1.51000
v -9.31000 -0.96000 -1.59000
v -9.31000 -0.96000 -1.51000
v -9.39000 0.96000 -1.59000
v -9.39000 0.96000 -1.51000
v -9.39000 -0.96000 -1.59000
v -9.39000 -0.96000 -1.51000
v -0.09000 -2.25000 -1.64000
v -0.09000 -2.25000 -1.46000
v 0.09000 -2.25000 -1.64000
v 0.09000 -2.25000 -1.46000
v -0.09000 -2.75000 -1.64000
v -0.09000 -2.75000 -1.46000
v 0.09000 -2.75000 -1.64000
v 0.09000 -2.75000 -1.46000
v -0.96000 -2.80000 -1.58000
v -0.96000 -2.80000 -1.52000
v 0.96000 -2.80000 -1.58000
v 0.96000 -2.80000 -1.52000
v -0.96000 -4.93000 -1.58000
v -0.96000 -4.93000 -1.52000
v 0.96000 -4.93000 -1.58000
v 0.96000 -4.93000 -1.52000
v -0.33250 -2.80000 -1.51500
v -0.33250 -2.80000 -1.48500
v -0.30750 -2.80000 -1.51500
v -0.30750 -2.80000 -1.48500
v -0.33250 -4.93000 -1.51500
v -0.33250 -4.93000 -1.48500
v -0.30750 -4.93000 -1.51500
v -0.30750 -4.93000 -1.48500
v 0.30750 -2.80000 -1.51500
v 0.30750 -2.80000 -1.48500
v 0.33250 -2.80000 -1.51500
v 0.33250 -2.80000 -1.48500
v 0.30750 -4.93000 -1.51500
v 0.30750 -4.93000 -1.48500
v 0.33250 -4.93000 -1.51500
v 0.33250 -4.93000 -1.48500
v -0.96000 -3.85250 -1.50500
v -0.96000 -3.85250 -1.47500
v 0.96000 -3.85250 -1.50500
v 0.96000 -3.85250 -1.47500
v -0.96000 -3.87750 -1.50500
v -0.96000 -3.87750 -1.47500
v 0.96000 -3.87750 -1.50500
v 0.96000 -3.87750 -1.47500
v -0.96000 -5.01000 -1.58000
v -0.96000 -5.01000 -1.52000
v 0.96000 -5.01000 -1.58000
v 0.96000 -5.01000 -1.52000
v -0.96000 -7.14000 -1.58000
v -0.96000 -7.14000 -1.52000
v 0.96000 -7.14000 -1.58000
v 0.96000 -7.14000 -1.52000
v -0.33250 -5.01000 -1.51500
v -0.33250 -5.01000 -1.48500
v -0.30750 -5.01000 -1.51500
v -0.30750 -5.01000 -1.48500
v -0.33250 -7.14000 -1.51500
v -0.33250 -7.14000 -1.48500
v -0.30750 -7.14000 -1.51500
v -0.30750 -7.14000 -1.48500
v 0.30750 -5.01000 -1.51500
v 0.30750 -5.01000 -1.48500
v 0.33250 -5.01000 -1.51500
v 0.33250 -5.01000 -1.48500
v 0.30750 -7.14000 -1.51500
v 0.30750 -7.14000 -1.48500
v 0.33250 -7.14000 -1.51500
v 0.33250 -7.14000 -1.48500
v -0.96000 -6.06250 -1.50500
v -0.96000 -6.06250 -1.47500
v 0.96000 -6.06250 -1.50500
v 0.96000 -6.06250 -1.47500
v -0.96000 -6.08750 -1.50500
v -0.96000 -6.08750 -1.47500
v 0.96000 -6.08750 -1.50500
v 0.96000 -6.08750 -1.47500
v -0.96000 -7.22000 -1.58000
v -0.96000 -7.22000 -1.52000
v 0.96000 -7.22000 -1.58000
v 0.96000 -7.22000 -1.52000
v -0.96000 -9.35000 -1.58000
v -0.96000 -9.35000 -1.52000
v 0.96000 -9.35000 -1.58000
v 0.96000 -9.35000 -1.52000
v -0.33250 -7.22000 -1.51500
v -0.33250 -7.22000 -1.48500
v -0.30750 -7.22000 -1.51500
v -0.30750 -7.22000 -1.48500
v -0.33250 -9.35000 -1.51500
v -0.33250 -9.35000 -1.48500
v -0.30750 -9.35000 -1.51500
v -0.30750 -9.35000 -1.48500
v 0.30750 -7.22000 -1.51500
v 0.30750 -7.22000 -1.48500
v 0.33250 -7.22000 -1.51500
v 0.33250 -7.22000 -1.48500
v 0.30750 -9.35000 -1.51500
v 0.30750 -9.35000 -1.48500
v 0.33250 -9.35000 -1.51500
v 0.33250 -9.35000 -1.48500
v -0.96000 -8.27250 -1.50500
v -0.96000 -8.27250 -1.47500
v 0.96000 -8.27250 -1.50500
v 0.96000 -8.27250 -1.47500
v -0.96000 -8.29750 -1.50500
v -0.96000 -8.29750 -1.47500
v 0.96000 -8.29750 -1.50500
v 0.96000 -8.29750 -1.47500
v -0.96000 -9.31000 -1.59000
v -0.96000 -9.31000 -1.51000
v 0.96000 -9.31000 -1.59000
v 0.96000 -9.31000 -1.51000
v -0.96000 -9.39000 -1.59000
v -0.96000 -9.39000 -1.51000
v 0.96000 -9.39000 -1.59000
v 0.96000 -9.39000 -1.51000
v 2.03768 1.15212 -1.41000
v 2.03768 1.15212 -1.09000
v 2.00491 1.12918 -1.41000
v 2.00491 1.12918 -1.09000
v 1.77957 1.52074 -1.41000
v 1.77957 1.52074 -1.09000
v 1.74680 1.49780 -1.41000
v 1.74680 1.49780 -1.09000
v -1.15212 2.03768 -1.41000
v -1.15212 2.03768 -1.09000
v -1.12918 2.00491 -1.41000
v -1.12918 2.00491 -1.09000
v -1.52074 1.77957 -1.41000
v -1.52074 1.77957 -1.09000
v -1.49780 1.74680 -1.41000
v -1.49780 1.74680 -1.09000
v -2.03768 -1.15212 -1.41000
v -2.03768 -1.15212 -1.09000
v -2.00491 -1.12918 -1.41000
v -2.00491 -1.12918 -1.09000
v -1.77957 -1.52074 -1.41000
v -1.77957 -1.52074 -1.09000
v -1.74680 -1.49780 -1.41000
v -1.74680 -1.49780 -1.09000
v 1.15212 -2.03768 -1.41000
v 1.15212 -2.03768 -1.09000
v 1.12918 -2.00491 -1.41000
v 1.12918 -2.00491 -1.09000
v 1.52074 -1.77957 -1.41000
v 1.52074 -1.77957 -1.09000
v 1.49780 -1.74680 -1.41000
v 1.49780 -1.74680 -1.09000
usemtl white
f 1 3 4 2
f 3 5 6 4
f 5 7 8 6
f 7 9 10 8
f 9 11 12 10
f 11 13 14 12
f 13 15 16 14
f 15 17 18 16
f 17 19 20 18
f 19 21 22 20
f 21 23 24 22
f 23 25 26 24
f 25 27 28 26
f 27 29 30 28
f 29 31 32 30
f 31 33 34 32
f 33 35 36 34
f 35 37 38 36
f 37 39 40 38
f 39 41 42 40
f 41 43 44 42
f 43 45 46 44
f 45 47 48 46
f 47 49 50 48
f 49 51 52 50
f 51 53 54 52
f 53 55 56 54
f 55 57 58 56
f 57 59 60 58
f 59 61 62 60
f 61 63 64 62
f 63 65 66 64
f 65 67 68 66
f 67 69 70 68
f 69 71 72 70
f 71 73 74 72
f 73 75 76 74
f 75 77 78 76
f 77 79 80 78
f 79 81 82 80
f 81 83 84 82
f 83 85 86 84
f 85 87 88 86
f 87 89 90 88
f 89 91 92 90
f 91 93 94 92
f 93 95 96 94
f 95 97 98 96
f 97 99 100 98
f 99 101 102 100
f 101 103 104 102
f 103 105 106 104
f 105 107 108 106
f 107 109 110 108
f 109 111 112 110
f 111 113 114 112
f 113 115 116 114
f 115 117 118 116
f 117 119 120 118
f 119 121 122 120
f 121 123 124 122
f 123 125 126 124
f 125 127 128 126
f 127 1 2 128
f 129 1 3
f 129 3 5
f 129 5 7
f 129 7 9
f 129 9 11
f 129 11 13
f 129 13 15
f 129 15 17
f 129 17 19
f 129 19 21
f 129 21 23
f 129 23 25
f 129 25 27
f 129 27 29
f 129 29 31
f 129 31 33
f 129 33 35
f 129 35 37
f 129 37 39
f 129 39 41
f 129 41 43
f 129 43 45
f 129 45 47
f 129 47 49
f 129 49 51
f 129 51 53
f 129 53 55
f 129 55 57
f 129 57 59
f 129 59 61
f 129 61 63
f 129 63 65
f 129 65 67
f 129 67 69
f 129 69 71
f 129 71 73
f 129 73 75
f 129 75 77
f 129 77 79
f 129 79 81
f 129 81 83
f 129 83 85
f 129 85 87
f 129 87 89
f 129 89 91
f 129 91 93
f 129 93 95
f 129 95 97
f 129 97 99
f 129 99 101
f 129 101 103
f 129 103 105
f 129 105 107
f 129 107 109
f 129 109 111
f 129 111 113
f 129 113 115
f 129 115 117
f 129 117 119
f 129 119 121
f 129 121 123
f 129 123 125
f 129 125 127
f 129 127 1
f 130 4 2
f 130 6 4
f 130 8 6
f 130 10 8
f 130 12 10
f 130 14 12
f 130 16 14
f 130 18 16
f 130 20 18
f 130 22 20
f 130 24 22
f 130 26 24
f 130 28 26
f 130 30 28
f 130 32 30
f 130 34 32
f 130 36 34
f 130 38 36
f 130 40 38
f 130 42 40
f 130 44 42
f 130 46 44
f 130 48 46
f 130 50 48
f 130 52 50
f 130 54 52
f 130 56 54
f 130 58 56
f 130 60 58
f 130 62 60
f 130 64 62
f 130 66 64
f 130 68 66
f 130 70 68
f 130 72 70
f 130 74 72
f 130 76 74
f 130 78 76
f 130 80 78
f 130 82 80
f 130 84 82
f 130 86 84
f 130 88 86
f 130 90 88
f 130 92 90
f 130 94 92
f 130 96 94
f 130 98 96
f 130 100 98
f 130 102 100
f 130 104 102
f 130 106 104
f 130 108 106
f 130 110 108
f 130 112 110
f 130 114 112
f 130 116 114
f 130 118 116
f 130 120 118
f 130 122 120
f 130 124 122
f 130 126 124
f 130 128 126
f 130 2 128
f 131 133 134 132
f 133 135 136 134
f 135 137 138 136
f 137 139 140 138
f 139 141 142 140
f 141 143 144 142
f 143 145 146 144
f 145 147 148 146
f 147 149 150 148
f 149 151 152 150
f 151 153 154 152
f 153 155 156 154
f 155 157 158 156
f 157 159 160 158
f 159 161 162 160
f 161 163 164 162
f 163 165 166 164
f 165 167 168 166
f 167 169 170 168
f 169 171 172 170
f 171 173 174 172
f 173 175 176 174
f 175 177 178 176
f 177 179 180 178
f 179 181 182 180
f 181 183 184 182
f 183 185 186 184
f 185 187 188 186
f 187 189 190 188
f 189 191 192 190
f 191 193 194 192
f 193 195 196 194
f 195 197 198 196
f 197 199 200 198
f 199 201 202 200
f 201 203 204 202
f 203 205 206 204
f 205 207 208 206
f 207 209 210 208
f 209 211 212 210
f 211 213 214 212
f 213 215 216 214
f 215 217 218 216
f 217 219 220 218
f 219 221 222 220
f 221 223 224 222
f 223 225 226 224
f 225 227 228 226
f 227 229 230 228
f 229 231 232 230
f 231 233 234 232
f 233 235 236 234
f 235 237 238 236
f 237 239 240 238
f 239 241 242 240
f 241 243 244 242
f 243 245 246 244
f 245 247 248 246
f 247 249 250 248
f 249 251 252 250
f 251 253 254 252
f 253 255 256 254
f 255 257 258 256
f 257 131 132 258
f 259 131 133
f 260 134 132
f 259 133 135
f 260 136 134
f 259 135 137
f 260 138 136
f 259 137 139
f 260 140 138
f 259 139 141
f 260 142 140
f 259 141 143
f 260 144 142
f 259 143 145
f 260 146 144
f 259 145 147
f 260 148 146
f 259 147 149
f 260 150 148
f 259 149 151
f 260 152 150
f 259 151 153
f 260 154 152
f 259 153 155
f 260 156 154
f 259 155 157
f 260 158 156
f 259 157 159
f 260 160 158
f 259 159 161
f 260 162 160
f 259 161 163
f 260 164 162
f 259 163 165
f 260 166 164
f 259 165 167
f 260 168 166
f 259 167 169
f 260 170 168
f 259 169 171
f 260 172 170
f 259 171 173
f 260 174 172
f 259 173 175
f 260 176 174
f 259 175 177
f 260 178 176
f 259 177 179
f 260 180 178
f 259 179 181
f 260 182 180
f 259 181 183
f 260 184 182
f 259 183 185
f 260 186 184
f 259 185 187
f 260 188 186
f 259 187 189
f 260 190 188
f 259 189 191
f 260 192 190
f 259 191 193
f 260 194 192
f 259 193 195
f 260 196 194
f 259 195 197
f 260 198 196
f 259 197 199
f 260 200 198
f 259 199 201
f 260 202 200
f 259 201 203
f 260 204 202
f 259 203 205
f 260 206 204
f 259 205 207
f 260 208 206
f 259 207 209
f 260 210 208
f 259 209 211
f 260 212 210
f 259 211 213
f 260 214 212
f 259 213 215
f 260 216 214
f 259 215 217
f 260 218 216
f 259 217 219
f 260 220 218
f 259 219 221
f 260 222 220
f 259 221 223
f 260 224 222
f 259 223 225
f 260 226 224
f 259 225 227
f 260 228 226
f 259 227 229
f 260 230 228
f 259 229 231
f 260 232 230
f 259 231 233
f 260 234 232
f 259 233 235
f 260 236 234
f 259 235 237
f 260 238 236
f 259 237 239
f 260 240 238
f 259 239 241
f 260 242 240
f 259 241 243
f 260 244 242
f 259 243 245
f 260 246 244
f 259 245 247
f 260 248 246
f 259 247 249
f 260 250 248
f 259 249 251
f 260 252 250
f 259 251 253
f 260 254 252
f 259 253 255
f 260 256 254
f 259 255 257
f 260 258 256
f 259 257 131
f 260 132 258
f 261 263 264 262
f 263 265 266 264
f 265 267 268 266
f 267 269 270 268
f 269 271 272 270
f 271 273 274 272
f 273 275 276 274
f 275 277 278 276
f 277 279 280 278
f 279 281 282 280
f 281 283 284 282
f 283 285 286 284
f 285 287 288 286
f 287 289 290 288
f 289 291 292 290
f 291 293 294 292
f 293 295 296 294
f 295 297 298 296
f 297 299 300 298
f 299 301 302 300
f 301 303 304 302
f 303 305 306 304
f 305 307 308 306
f 307 309 310 308
f 309 311 312 310
f 311 313 314 312
f 313 315 316 314
f 315 317 318 316
f 317 319 320 318
f 319 321 322 320
f 321 323 324 322
f 323 325 326 324
f 325 327 328 326
f 327 329 330 328
f 329 331 332 330
f 331 333 334 332
f 333 335 336 334
f 335 337 338 336
f 337 339 340 338
f 339 341 342 340
f 341 343 344 342
f 343 345 346 344
f 345 347 348 346
f 347 349 350 348
f 349 351 352 350
f 351 353 354 352
f 353 355 356 354
f 355 357 358 356
f 357 359 360 358
f 359 361 362 360
f 361 363 364 362
f 363 365 366 364
f 365 367 368 366
f 367 369 370 368
f 369 371 372 370
f 371 373 374 372
f 373 375 376 374
f 375 377 378 376
f 377 379 380 378
f 379 381 382 380
f 381 383 384 382
f 383 385 386 384
f 385 387 388 386
f 387 261 262 388
f 389 261 263
f 389 263 265
f 389 265 267
f 389 267 269
f 389 269 271
f 389 271 273
f 389 273 275
f 389 275 277
f 389 277 279
f 389 279 281
f 389 281 283
f 389 283 285
f 389 285 287
f 389 287 289
f 389 289 291
f 389 291 293
f 389 293 295
f 389 295 297
f 389 297 299
f 389 299 301
f 389 301 303
f 389 303 305
f 389 305 307
f 389 307 309
f 389 309 311
f 389 311 313
f 389 313 315
f 389 315 317
f 389 317 319
f 389 319 321
f 389 321 323
f 389 323 325
f 389 325 327
f 389 327 329
f 389 329 331
f 389 331 333
f 389 333 335
f 389 335 337
f 389 337 339
f 389 339 341
f 389 341 343
f 389 343 345
f 389 345 347
f 389 347 349
f 389 349 351
f 389 351 353
f 389 353 355
f 389 355 357
f 389 357 359
f 389 359 361
f 389 361 363
f 389 363 365
f 389 365 367
f 389 367 369
f 389 369 371
f 389 371 373
f 389 373 375
f 389 375 377
f 389 377 379
f 389 379 381
f 389 381 383
f 389 383 385
f 389 385 387
f 389 387 261
f 390 264 262
f 390 266 264
f 390 268 266
f 390 270 268
f 390 272 270
f 390 274 272
f 390 276 274
f 390 278 276
f 390 280 278
f 390 282 280
f 390 284 282
f 390 286 284
f 390 288 286
f 390 290 288
f 390 292 290
f 390 294 292
f 390 296 294
f 390 298 296
f 390 300 298
f 390 302 300
f 390 304 302
f 390 306 304
f 390 308 306
f 390 310 308
f 390 312 310
f 390 314 312
f 390 316 314
f 390 318 316
f 390 320 318
f 390 322 320
f 390 324 322
f 390 326 324
f 390 328 326
f 390 330 328
f 390 332 330
f 390 334 332
f 390 336 334
f 390 338 336
f 390 340 338
f 390 342 340
f 390 344 342
f 390 346 344
f 390 348 346
f 390 350 348
f 390 352 350
f 390 354 352
f 390 356 354
f 390 358 356
f 390 360 358
f 390 362 360
f 390 364 362
f 390 366 364
f 390 368 366
f 390 370 368
f 390 372 370
f 390 374 372
f 390 376 374
f 390 378 376
f 390 380 378
f 390 382 380
f 390 384 382
f 390 386 384
f 390 388 386
f 390 262 388
usemtl silver
f 391 393 394 392
f 393 395 396 394
f 395 397 398 396
f 397 399 400 398
f 399 401 402 400
f 401 403 404 402
f 403 405 406 404
f 405 407 408 406
f 407 409 410 408
f 409 411 412 410
f 411 413 414 412
f 413 415 416 414
f 415 417 418 416
f 417 419 420 418
f 419 421 422 420
f 421 423 424 422
f 423 425 426 424
f 425 427 428 426
f 427 429 430 428
f 429 431 432 430
f 431 433 434 432
f 433 435 436 434
f 435 437 438 436
f 437 439 440 438
f 439 441 442 440
f 441 443 444 442
f 443 445 446 444
f 445 447 448 446
f 447 449 450 448
f 449 451 452 450
f 451 453 454 452
f 453 455 456 454
f 455 457 458 456
f 457 459 460 458
f 459 461 462 460
f 461 463 464 462
f 463 465 466 464
f 465 467 468 466
f 467 469 470 468
f 469 471 472 470
f 471 473 474 472
f 473 475 476 474
f 475 477 478 476
f 477 479 480 478
f 479 481 482 480
f 481 483 484 482
f 483 485 486 484
f 485 487 488 486
f 487 489 490 488
f 489 491 492 490
f 491 493 494 492
f 493 495 496 494
f 495 497 498 496
f 497 499 500 498
f 499 501 502 500
f 501 503 504 502
f 503 505 506 504
f 505 507 508 506
f 507 509 510 508
f 509 511 512 510
f 511 513 514 512
f 513 515 516 514
f 515 517 518 516
f 517 391 392 518
f 519 391 393
f 519 393 395
f 519 395 397
f 519 397 399
f 519 399 401
f 519 401 403
f 519 403 405
f 519 405 407
f 519 407 409
f 519 409 411
f 519 411 413
f 519 413 415
f 519 415 417
f 519 417 419
f 519 419 421
f 519 421 423
f 519 423 425
f 519 425 427
f 519 427 429
f 519 429 431
f 519 431 433
f 519 433 435
f 519 435 437
f 519 437 439
f 519 439 441
f 519 441 443
f 519 443 445
f 519 445 447
f 519 447 449
f 519 449 451
f 519 451 453
f 519 453 455
f 519 455 457
f 519 457 459
f 519 459 461
f 519 461 463
f 519 463 465
f 519 465 467
f 519 467 469
f 519 469 471
f 519 471 473
f 519 473 475
f 519 475 477
f 519 477 479
f 519 479 481
f 519 481 483
f 519 483 485
f 519 485 487
f 519 487 489
f 519 489 491
f 519 491 493
f 519 493 495
f 519 495 497
f 519 497 499
f 519 499 501
f 519 501 503
f 519 503 505
f 519 505 507
f 519 507 509
f 519 509 511
f 519 511 513
f 519 513 515
f 519 515 517
f 519 517 391
f 520 394 392
f 520 396 394
f 520 398 396
f 520 400 398
f 520 402 400
f 520 404 402
f 520 406 404
f 520 408 406
f 520 410 408
f 520 412 410
f 520 414 412
f 520 416 414
f 520 418 416
f 520 420 418
f 520 422 420
f 520 424 422
f 520 426 424
f 520 428 426
f 520 430 428
f 520 432 430
f 520 434 432
f 520 436 434
f 520 438 436
f 520 440 438
f 520 442 440
f 520 444 442
f 520 446 444
f 520 448 446
f 520 450 448
f 520 452 450
f 520 454 452
f 520 456 454
f 520 458 456
f 520 460 458
f 520 462 460
f 520 464 462
f 520 466 464
f 520 468 466
f 520 470 468
f 520 472 470
f 520 474 472
f 520 476 474
f 520 478 476
f 520 480 478
f 520 482 480
f 520 484 482
f 520 486 484
f 520 488 486
f 520 490 488
f 520 492 490
f 520 494 492
f 520 496 494
f 520 498 496
f 520 500 498
f 520 502 500
f 520 504 502
f 520 506 504
f 520 508 506
f 520 510 508
f 520 512 510
f 520 514 512
f 520 516 514
f 520 518 516
f 520 392 518
usemtl dark
f 521 523 524 522
f 523 525 526 524
f 525 527 528 526
f 527 529 530 528
f 529 531 532 530
f 531 533 534 532
f 533 535 536 534
f 535 537 538 536
f 537 539 540 538
f 539 541 542 540
f 541 543 544 542
f 543 545 546 544
f 545 547 548 546
f 547 549 550 548
f 549 551 552 550
f 551 553 554 552
f 553 555 556 554
f 555 557 558 556
f 557 559 560 558
f 559 561 562 560
f 561 563 564 562
f 563 565 566 564
f 565 567 568 566
f 567 569 570 568
f 569 571 572 570
f 571 573 574 572
f 573 575 576 574
f 575 577 578 576
f 577 579 580 578
f 579 581 582 580
f 581 583 584 582
f 583 585 586 584
f 585 587 588 586
f 587 589 590 588
f 589 591 592 590
f 591 593 594 592
f 593 595 596 594
f 595 597 598 596
f 597 599 600 598
f 599 601 602 600
f 601 603 604 602
f 603 605 606 604
f 605 607 608 606
f 607 609 610 608
f 609 611 612 610
f 611 613 614 612
f 613 615 616 614
f 615 521 522 616
f 617 521 523
f 618 524 522
f 617 523 525
f 618 526 524
f 617 525 527
f 618 528 526
f 617 527 529
f 618 530 528
f 617 529 531
f 618 532 530
f 617 531 533
f 618 534 532
f 617 533 535
f 618 536 534
f 617 535 537
f 618 538 536
f 617 537 539
f 618 540 538
f 617 539 541
f 618 542 540
f 617 541 543
f 618 544 542
f 617 543 545
f 618 546 544
f 617 545 547
f 618 548 546
f 617 547 549
f 618 550 548
f 617 549 551
f 618 552 550
f 617 551 553
f 618 554 552
f 617 553 555
f 618 556 554
f 617 555 557
f 618 558 556
f 617 557 559
f 618 560 558
f 617 559 561
f 618 562 560
f 617 561 563
f 618 564 562
f 617 563 565
f 618 566 564
f 617 565 567
f 618 568 566
f 617 567 569
f 618 570 568
f 617 569 571
f 618 572 570
f 617 571 573
f 618 574 572
f 617 573 575
f 618 576 574
f 617 575 577
f 618 578 576
f 617 577 579
f 618 580 578
f 617 579 581
f 618 582 580
f 617 581 583
f 618 584 582
f 617 583 585
f 618 586 584
f 617 585 587
f 618 588 586
f 617 587 589
f 618 590 588
f 617 589 591
f 618 592 590
f 617 591 593
f 618 594 592
f 617 593 595
f 618 596 594
f 617 595 597
f 618 598 596
f 617 597 599
f 618 600 598
f 617 599 601
f 618 602 600
f 617 601 603
f 618 604 602
f 617 603 605
f 618 606 604
f 617 605 607
f 618 608 606
f 617 607 609
f 618 610 608
f 617 609 611
f 618 612 610
f 617 611 613
f 618 614 612
f 617 613 615
f 618 616 614
f 617 615 521
f 618 522 616
usemtl silver
f 619 621 622 620
f 621 623 624 622
f 623 625 626 624
f 625 627 628 626
f 627 629 630 628
f 629 631 632 630
f 631 633 634 632
f 633 635 636 634
f 635 637 638 636
f 637 639 640 638
f 639 641 642 640
f 641 643 644 642
f 643 645 646 644
f 645 647 648 646
f 647 649 650 648
f 649 651 652 650
f 651 653 654 652
f 653 655 656 654
f 655 657 658 656
f 657 659 660 658
f 659 661 662 660
f 661 663 664 662
f 663 665 666 664
f 665 667 668 666
f 667 669 670 668
f 669 671 672 670
f 671 673 674 672
f 673 675 676 674
f 675 677 678 676
f 677 679 680 678
f 679 681 682 680
f 681 683 684 682
f 683 685 686 684
f 685 687 688 686
f 687 689 690 688
f 689 691 692 690
f 691 693 694 692
f 693 695 696 694
f 695 697 698 696
f 697 699 700 698
f 699 701 702 700
f 701 703 704 702
f 703 705 706 704
f 705 707 708 706
f 707 709 710 708
f 709 711 712 710
f 711 713 714 712
f 713 619 620 714
f 715 619 621
f 716 622 620
f 715 621 623
f 716 624 622
f 715 623 625
f 716 626 624
f 715 625 627
f 716 628 626
f 715 627 629
f 716 630 628
f 715 629 631
f 716 632 630
f 715 631 633
f 716 634 632
f 715 633 635
f 716 636 634
f 715 635 637
f 716 638 636
f 715 637 639
f 716 640 638
f 715 639 641
f 716 642 640
f 715 641 643
f 716 644 642
f 715 643 645
f 716 646 644
f 715 645 647
f 716 648 646
f 715 647 649
f 716 650 648
f 715 649 651
f 716 652 650
f 715 651 653
f 716 654 652
f 715 653 655
f 716 656 654
f 715 655 657
f 716 658 656
f 715 657 659
f 716 660 658
f 715 659 661
f 716 662 660
f 715 661 663
f 716 664 662
f 715 663 665
f 716 666 664
f 715 665 667
f 716 668 666
f 715 667 669
f 716 670 668
f 715 669 671
f 716 672 670
f 715 671 673
f 716 674 672
f 715 673 675
f 716 676 674
f 715 675 677
f 716 678 676
f 715 677 679
f 716 680 678
f 715 679 681
f 716 682 680
f 715 681 683
f 716 684 682
f 715 683 685
f 716 686 684
f 715 685 687
f 716 688 686
f 715 687 689
f 716 690 688
f 715 689 691
f 716 692 690
f 715 691 693
f 716 694 692
f 715 693 695
f 716 696 694
f 715 695 697
f 716 698 696
f 715 697 699
f 716 700 698
f 715 699 701
f 716 702 700
f 715 701 703
f 716 704 702
f 715 703 705
f 716 706 704
f 715 705 707
f 716 708 706
f 715 707 709
f 716 710 708
f 715 709 711
f 716 712 710
f 715 711 713
f 716 714 712
f 715 713 619
f 716 620 714
usemtl dark
f 717 719 720 718
f 719 721 722 720
f 721 723 724 722
f 723 725 726 724
f 725 727 728 726
f 727 729 730 728
f 729 731 732 730
f 731 733 734 732
f 733 735 736 734
f 735 737 738 736
f 737 739 740 738
f 739 741 742 740
f 741 743 744 742
f 743 745 746 744
f 745 747 748 746
f 747 749 750 748
f 749 751 752 750
f 751 753 754 752
f 753 755 756 754
f 755 757 758 756
f 757 759 760 758
f 759 761 762 760
f 761 763 764 762
f 763 765 766 764
f 765 767 768 766
f 767 769 770 768
f 769 771 772 770
f 771 773 774 772
f 773 775 776 774
f 775 777 778 776
f 777 779 780 778
f 779 781 782 780
f 781 783 784 782
f 783 785 786 784
f 785 787 788 786
f 787 789 790 788
f 789 791 792 790
f 791 793 794 792
f 793 795 796 794
f 795 717 718 796
f 797 799 800 798
f 799 801 802 800
f 801 803 804 802
f 803 805 806 804
f 805 807 808 806
f 807 809 810 808
f 809 811 812 810
f 811 813 814 812
f 813 815 816 814
f 815 817 818 816
f 817 819 820 818
f 819 821 822 820
f 821 823 824 822
f 823 825 826 824
f 825 827 828 826
f 827 829 830 828
f 829 831 832 830
f 831 833 834 832
f 833 835 836 834
f 835 837 838 836
f 837 839 840 838
f 839 841 842 840
f 841 843 844 842
f 843 845 846 844
f 845 847 848 846
f 847 849 850 848
f 849 851 852 850
f 851 853 854 852
f 853 855 856 854
f 855 857 858 856
f 857 859 860 858
f 859 797 798 860
f 861 797 799
f 862 800 798
f 861 799 801
f 862 802 800
f 861 801 803
f 862 804 802
f 861 803 805
f 862 806 804
f 861 805 807
f 862 808 806
f 861 807 809
f 862 810 808
f 861 809 811
f 862 812 810
f 861 811 813
f 862 814 812
f 861 813 815
f 862 816 814
f 861 815 817
f 862 818 816
f 861 817 819
f 862 820 818
f 861 819 821
f 862 822 820
f 861 821 823
f 862 824 822
f 861 823 825
f 862 826 824
f 861 825 827
f 862 828 826
f 861 827 829
f 862 830 828
f 861 829 831
f 862 832 830
f 861 831 833
f 862 834 832
f 861 833 835
f 862 836 834
f 861 835 837
f 862 838 836
f 861 837 839
f 862 840 838
f 861 839 841
f 862 842 840
f 861 841 843
f 862 844 842
f 861 843 845
f 862 846 844
f 861 845 847
f 862 848 846
f 861 847 849
f 862 850 848
f 861 849 851
f 862 852 850
f 861 851 853
f 862 854 852
f 861 853 855
f 862 856 854
f 861 855 857
f 862 858 856
f 861 857 859
f 862 860 858
f 861 859 797
f 862 798 860
usemtl grey
f 863 867 869 865
f 864 866 870 868
f 863 864 868 867
f 865 869 870 866
f 863 865 866 864
f 867 868 870 869
f 871 875 877 873
f 872 874 878 876
f 871 872 876 875
f 873 877 878 874
f 871 873 874 872
f 875 876 878 877
f 879 883 885 881
f 880 882 886 884
f 879 880 884 883
f 881 885 886 882
f 879 881 882 880
f 883 884 886 885
f 887 891 893 889
f 888 890 894 892
f 887 888 892 891
f 889 893 894 890
f 887 889 890 888
f 891 892 894 893
f 895 899 901 897
f 896 898 902 900
f 895 896 900 899
f 897 901 902 898
f 895 897 898 896
f 899 900 902 901
f 903 907 909 905
f 904 906 910 908
f 903 904 908 907
f 905 909 910 906
f 903 905 906 904
f 907 908 910 909
f 911 915 917 913
f 912 914 918 916
f 911 912 916 915
f 913 917 918 914
f 911 913 914 912
f 915 916 918 917
f 919 923 925 921
f 920 922 926 924
f 919 920 924 923
f 921 925 926 922
f 919 921 922 920
f 923 924 926 925
usemtl dark
f 927 931 933 929
f 928 930 934 932
f 927 928 932 931
f 929 933 934 930
f 927 929 930 928
f 931 932 934 933
f 935 939 941 937
f 936 938 942 940
f 935 936 940 939
f 937 941 942 938
f 935 937 938 936
f 939 940 942 941
f 943 947 949 945
f 944 946 950 948
f 943 944 948 947
f 945 949 950 946
f 943 945 946 944
f 947 948 950 949
f 951 955 957 953
f 952 954 958 956
f 951 952 956 955
f 953 957 958 954
f 951 953 954 952
f 955 956 958 957
f 959 963 965 961
f 960 962 966 964
f 959 960 964 963
f 961 965 966 962
f 959 961 962 960
f 963 964 966 965
f 967 971 973 969
f 968 970 974 972
f 967 968 972 971
f 969 973 974 970
f 967 969 970 968
f 971 972 974 973
f 975 979 981 977
f 976 978 982 980
f 975 976 980 979
f 977 981 982 978
f 975 977 978 976
f 979 980 982 981
usemtl grey
f 983 987 989 985
f 984 986 990 988
f 983 984 988 987
f 985 989 990 986
f 983 985 986 984
f 987 988 990 989
usemtl blue
f 991 995 997 993
f 992 994 998 996
f 991 992 996 995
f 993 997 998 994
f 991 993 994 992
f 995 996 998 997
usemtl dark
f 999 1003 1005 1001
f 1000 1002 1006 1004
f 999 1000 1004 1003
f 1001 1005 1006 1002
f 999 1001 1002 1000
f 1003 1004 1006 1005
f 1007 1011 1013 1009
f 1008 1010 1014 1012
f 1007 1008 1012 1011
f 1009 1013 1014 1010
f 1007 1009 1010 1008
f 1011 1012 1014 1013
f 1015 1019 1021 1017
f 1016 1018 1022 1020
f 1015 1016 1020 1019
f 1017 1021 1022 1018
f 1015 1017 1018 1016
f 1019 1020 1022 1021
usemtl blue
f 1023 1027 1029 1025
f 1024 1026 1030 1028
f 1023 1024 1028 1027
f 1025 1029 1030 1026
f 1023 1025 1026 1024
f 1027 1028 1030 1029
usemtl dark
f 1031 1035 1037 1033
f 1032 1034 1038 1036
f 1031 1032 1036 1035
f 1033 1037 1038 1034
f 1031 1033 1034 1032
f 1035 1036 1038 1037
f 1039 1043 1045 1041
f 1040 1042 1046 1044
f 1039 1040 1044 1043
f 1041 1045 1046 1042
f 1039 1041 1042 1040
f 1043 1044 1046 1045
f 1047 1051 1053 1049
f 1048 1050 1054 1052
f 1047 1048 1052 1051
f 1049 1053 1054 1050
f 1047 1049 1050 1048
f 1051 1052 1054 1053
usemtl blue
f 1055 1059 1061 1057
f 1056 1058 1062 1060
f 1055 1056 1060 1059
f 1057 1061 1062 1058
f 1055 1057 1058 1056
f 1059 1060 1062 1061
usemtl dark
f 1063 1067 1069 1065
f 1064 1066 1070 1068
f 1063 1064 1068 1067
f 1065 1069 1070 1066
f 1063 1065 1066 1064
f 1067 1068 1070 1069
f 1071 1075 1077 1073
f 1072 1074 1078 1076
f 1071 1072 1076 1075
f 1073 1077 1078 1074
f 1071 1073 1074 1072
f 1075 1076 1078 1077
f 1079 1083 1085 1081
f 1080 1082 1086 1084
f 1079 1080 1084 1083
f 1081 1085 1086 1082
f 1079 1081 1082 1080
f 1083 1084 1086 1085
usemtl grey
f 1087 1091 1093 1089
f 1088 1090 1094 1092
f 1087 1088 1092 1091
f 1089 1093 1094 1090
f 1087 1089 1090 1088
f 1091 1092 1094 1093
f 1095 1099 1101 1097
f 1096 1098 1102 1100
f 1095 1096 1100 1099
f 1097 1101 1102 1098
f 1095 1097 1098 1096
f 1099 1100 1102 1101
usemtl blue
f 1103 1107 1109 1105
f 1104 1106 1110 1108
f 1103 1104 1108 1107
f 1105 1109 1110 1106
f 1103 1105 1106 1104
f 1107 1108 1110 1109
usemtl dark
f 1111 1115 1117 1113
f 1112 1114 1118 1116
f 1111 1112 1116 1115
f 1113 1117 1118 1114
f 1111 1113 1114 1112
f 1115 1116 1118 1117
f 1119 1123 1125 1121
f 1120 1122 1126 1124
f 1119 1120 1124 1123
f 1121 1125 1126 1122
f 1119 1121 1122 1120
f 1123 1124 1126 1125
f 1127 1131 1133 1129
f 1128 1130 1134 1132
f 1127 1128 1132 1131
f 1129 1133 1134 1130
f 1127 1129 1130 1128
f 1131 1132 1134 1133
usemtl blue
f 1135 1139 1141 1137
f 1136 1138 1142 1140
f 1135 1136 1140 1139
f 1137 1141 1142 1138
f 1135 1137 1138 1136
f 1139 1140 1142 1141
usemtl dark
f 1143 1147 1149 1145
f 1144 1146 1150 1148
f 1143 1144 1148 1147
f 1145 1149 1150 1146
f 1143 1145 1146 1144
f 1147 1148 1150 1149
f 1151 1155 1157 1153
f 1152 1154 1158 1156
f 1151 1152 1156 1155
f 1153 1157 1158 1154
f 1151 1153 1154 1152
f 1155 1156 1158 1157
f 1159 1163 1165 1161
f 1160 1162 1166 1164
f 1159 1160 1164 1163
f 1161 1165 1166 1162
f 1159 1161 1162 1160
f 1163 1164 1166 1165
usemtl blue
f 1167 1171 1173 1169
f 1168 1170 1174 1172
f 1167 1168 1172 1171
f 1169 1173 1174 1170
f 1167 1169 1170 1168
f 1171 1172 1174 1173
usemtl dark
f 1175 1179 1181 1177
f 1176 1178 1182 1180
f 1175 1176 1180 1179
f 1177 1181 1182 1178
f 1175 1177 1178 1176
f 1179 1180 1182 1181
f 1183 1187 1189 1185
f 1184 1186 1190 1188
f 1183 1184 1188 1187
f 1185 1189 1190 1186
f 1183 1185 1186 1184
f 1187 1188 1190 1189
f 1191 1195 1197 1193
f 1192 1194 1198 1196
f 1191 1192 1196 1195
f 1193 1197 1198 1194
f 1191 1193 1194 1192
f 1195 1196 1198 1197
usemtl grey
f 1199 1203 1205 1201
f 1200 1202 1206 1204
f 1199 1200 1204 1203
f 1201 1205 1206 1202
f 1199 1201 1202 1200
f 1203 1204 1206 1205
f 1207 1211 1213 1209
f 1208 1210 1214 1212
f 1207 1208 1212 1211
f 1209 1213 1214 1210
f 1207 1209 1210 1208
f 1211 1212 1214 1213
usemtl blue
f 1215 1219 1221 1217
f 1216 1218 1222 1220
f 1215 1216 1220 1219
f 1217 1221 1222 1218
f 1215 1217 1218 1216
f 1219 1220 1222 1221
usemtl dark
f 1223 1227 1229 1225
f 1224 1226 1230 1228
f 1223 1224 1228 1227
f 1225 1229 1230 1226
f 1223 1225 1226 1224
f 1227 1228 1230 1229
f 1231 1235 1237 1233
f 1232 1234 1238 1236
f 1231 1232 1236 1235
f 1233 1237 1238 1234
f 1231 1233 1234 1232
f 1235 1236 1238 1237
f 1239 1243 1245 1241
f 1240 1242 1246 1244
f 1239 1240 1244 1243
f 1241 1245 1246 1242
f 1239 1241 1242 1240
f 1243 1244 1246 1245
usemtl blue
f 1247 1251 1253 1249
f 1248 1250 1254 1252
f 1247 1248 1252 1251
f 1249 1253 1254 1250
f 1247 1249 1250 1248
f 1251 1252 1254 1253
usemtl dark
f 1255 1259 1261 1257
f 1256 1258 1262 1260
f 1255 1256 1260 1259
f 1257 1261 1262 1258
f 1255 1257 1258 1256
f 1259 1260 1262 1261
f 1263 1267 1269 1265
f 1264 1266 1270 1268
f 1263 1264 1268 1267
f 1265 1269 1270 1266
f 1263 1265 1266 1264
f 1267 1268 1270 1269
f 1271 1275 1277 1273
f 1272 1274 1278 1276
f 1271 1272 1276 1275
f 1273 1277 1278 1274
f 1271 1273 1274 1272
f 1275 1276 1278 1277
usemtl blue
f 1279 1283 1285 1281
f 1280 1282 1286 1284
f 1279 1280 1284 1283
f 1281 1285 1286 1282
f 1279 1281 1282 1280
f 1283 1284 1286 1285
usemtl dark
f 1287 1291 1293 1289
f 1288 1290 1294 1292
f 1287 1288 1292 1291
f 1289 1293 1294 1290
f 1287 1289 1290 1288
f 1291 1292 1294 1293
f 1295 1299 1301 1297
f 1296 1298 1302 1300
f 1295 1296 1300 1299
f 1297 1301 1302 1298
f 1295 1297 1298 1296
f 1299 1300 1302 1301
f 1303 1307 1309 1305
f 1304 1306 1310 1308
f 1303 1304 1308 1307
f 1305 1309 1310 1306
f 1303 1305 1306 1304
f 1307 1308 1310 1309
usemtl grey
f 1311 1315 1317 1313
f 1312 1314 1318 1316
f 1311 1312 1316 1315
f 1313 1317 1318 1314
f 1311 1313 1314 1312
f 1315 1316 1318 1317
f 1319 1323 1325 1321
f 1320 1322 1326 1324
f 1319 1320 1324 1323
f 1321 1325 1326 1322
f 1319 1321 1322 1320
f 1323 1324 1326 1325
usemtl blue
f 1327 1331 1333 1329
f 1328 1330 1334 1332
f 1327 1328 1332 1331
f 1329 1333 1334 1330
f 1327 1329 1330 1328
f 1331 1332 1334 1333
usemtl dark
f 1335 1339 1341 1337
f 1336 1338 1342 1340
f 1335 1336 1340 1339
f 1337 1341 1342 1338
f 1335 1337 1338 1336
f 1339 1340 1342 1341
f 1343 1347 1349 1345
f 1344 1346 1350 1348
f 1343 1344 1348 1347
f 1345 1349 1350 1346
f 1343 1345 1346 1344
f 1347 1348 1350 1349
f 1351 1355 1357 1353
f 1352 1354 1358 1356
f 1351 1352 1356 1355
f 1353 1357 1358 1354
f 1351 1353 1354 1352
f 1355 1356 1358 1357
usemtl blue
f 1359 1363 1365 1361
f 1360 1362 1366 1364
f 1359 1360 1364 1363
f 1361 1365 1366 1362
f 1359 1361 1362 1360
f 1363 1364 1366 1365
usemtl dark
f 1367 1371 1373 1369
f 1368 1370 1374 1372
f 1367 1368 1372 1371
f 1369 1373 1374 1370
f 1367 1369 1370 1368
f 1371 1372 1374 1373
f 1375 1379 1381 1377
f 1376 1378 1382 1380
f 1375 1376 1380 1379
f 1377 1381 1382 1378
f 1375 1377 1378 1376
f 1379 1380 1382 1381
f 1383 1387 1389 1385
f 1384 1386 1390 1388
f 1383 1384 1388 1387
f 1385 1389 1390 1386
f 1383 1385 1386 1384
f 1387 1388 1390 1389
usemtl blue
f 1391 1395 1397 1393
f 1392 1394 1398 1396
f 1391 1392 1396 1395
f 1393 1397 1398 1394
f 1391 1393 1394 1392
f 1395 1396 1398 1397
usemtl dark
f 1399 1403 1405 1401
f 1400 1402 1406 1404
f 1399 1400 1404 1403
f 1401 1405 1406 1402
f 1399 1401 1402 1400
f 1403 1404 1406 1405
f 1407 1411 1413 1409
f 1408 1410 1414 1412
f 1407 1408 1412 1411
f 1409 1413 1414 1410
f 1407 1409 1410 1408
f 1411 1412 1414 1413
f 1415 1419 1421 1417
f 1416 1418 1422 1420
f 1415 1416 1420 1419
f 1417 1421 1422 1418
f 1415 1417 1418 1416
f 1419 1420 1422 1421
usemtl grey
f 1423 1427 1429 1425
f 1424 1426 1430 1428
f 1423 1424 1428 1427
f 1425 1429 1430 1426
f 1423 1425 1426 1424
f 1427 1428 1430 1429
usemtl red
f 1431 1435 1437 1433
f 1432 1434 1438 1436
f 1431 1432 1436 1435
f 1433 1437 1438 1434
f 1431 1433 1434 1432
f 1435 1436 1438 1437
f 1439 1443 1445 1441
f 1440 1442 1446 1444
f 1439 1440 1444 1443
f 1441 1445 1446 1442
f 1439 1441 1442 1440
f 1443 1444 1446 1445
f 1447 1451 1453 1449
f 1448 1450 1454 1452
f 1447 1448 1452 1451
f 1449 1453 1454 1450
f 1447 1449 1450 1448
f 1451 1452 1454 1453
f 1455 1459 1461 1457
f 1456 1458 1462 1460
f 1455 1456 1460 1459
f 1457 1461 1462 1458
f 1455 1457 1458 1456
f 1459 1460 1462 1461
